<svg xmlns="http://www.w3.org/2000/svg" viewBox="0 0 405.67 110.17">
  <g id="레이어_2" data-name="레이어 2">
    <g id="assets">
      <g>
        <path d="M16.59,32.43V25.06H4v-4.9H9.42V7.79H4.25V2.89H34.61v4.9h-5V20.16H35v4.9H22.35v7.37H39v5H0v-5ZM15.18,20.16h8.68V7.79H15.18Z"/>
        <path d="M72.1,1.49v7.7a54.24,54.24,0,0,1-1,9.61h6.72v5H38.86v-5H65.29a44.25,44.25,0,0,0,1-9.28v-3H43.94v-5Zm-22,35.89H73.19v5H44.35V28.23h5.76Z"/>
        <path d="M89.38,7.09V.19h2v6.9h11.06V9H78.32V7.09ZM80.79,23.7V21.28c0-4.16,3.33-8.59,9.55-8.59s9.56,4.43,9.56,8.59V23.7c0,4.16-3.34,8.59-9.56,8.59S80.79,27.86,80.79,23.7Zm1.92-2.38v2.34c0,3.59,3,6.76,7.63,6.76S98,27.25,98,23.66V21.32c0-3.59-3-6.76-7.64-6.76S82.71,17.73,82.71,21.32Zm34.92-1.63h-7.4V42.27h-2V0h2V17.82h7.4Z"/>
        <path d="M155.12,34.2V36H117V34.2h15.22V17.31h2V34.2ZM149.27,4.15v5a98.94,98.94,0,0,1-1.78,19.08L145.62,28a93.46,93.46,0,0,0,1.73-17.64V6H121.93V4.15Z"/>
        <path d="M157.55,33.88h3.06l-2.69,10.4h-2Z"/>
        <path d="M1.19,86.93V81.76c0-7.28,3.24-12.56,10.92-12.56S23,74.48,23,81.76v5.17c0,7.28-3.25,12.56-10.93,12.56S1.19,94.21,1.19,86.93Zm5.53-4.47v3.77c0,5.28,1.55,8.08,5.39,8.08s5.4-2.8,5.4-8.08V82.46c0-5.28-1.56-8.08-5.4-8.08S6.72,77.18,6.72,82.46Zm27-.75h5.85v5.13H33.74v22.87H27.93V66.31h5.81Z"/>
        <path d="M77.81,88.43v4.66H38.86V88.43ZM44.3,86.05V74.57H66.47V72.14H44.17V67.52h28V79H50v2.43h22.9v4.62Zm0,9.42H72.37v14.28H44.3ZM50,105.09H66.7v-5H50Z"/>
        <path d="M79.87,70H99.53v5.09H85.68V93.37h2.88a107.8,107.8,0,0,0,14-.93l.64,5a110.6,110.6,0,0,1-16,1H79.87Zm31.59,11.48h5.85v5.13h-5.85v23.06h-5.8V66.31h5.8Z"/>
        <path d="M155.54,87.82v5h-16v7.46h-5.76V92.77H116.59v-5Zm-27.71,16.43h23.09v5H122.07V96.64h5.76ZM122.12,77V75.22c0-5.27,5.76-8.3,13.94-8.3S150,70,150,75.22V77c0,5.27-5.76,8.3-13.94,8.3S122.12,82.27,122.12,77Zm5.71-1.45v1.12c0,2.1,3.11,3.87,8.23,3.87s8.23-1.77,8.23-3.87V75.55c0-2.1-3.11-3.87-8.23-3.87S127.83,73.45,127.83,75.55Z"/>
        <path d="M177.57,80.26a10.57,10.57,0,0,1-3.1,3.36c-2,1.63-4,3.31-6.68,5.32l-3.34-4.29a81.43,81.43,0,0,0,6.77-5.37,8.39,8.39,0,0,0,3.2-6.9v-5h5.85v4.9c0,3,.64,4.53,3.2,6.63,1.46,1.17,4.16,3.08,6.36,4.53l-3.2,4c-1.88-1.26-3.89-2.7-5.81-4.15s-2.88-2.33-3.2-3.08Zm21.9,9.57v12.36H178.4v3.27h22.35v4.67H172.82V97.76h21.07V94.49h-21.3V89.83Zm0-2h-5.76V66.31h5.76Z"/>
        <path d="M242,92v5H225.4v12.78h-5.81V97H203V92ZM208.21,88.8V76.2h22.58v-3H208.07v-4.9h28.44V80.92H213.92v3h23.55V88.8Z"/>
        <path d="M241.77,79.94V78.07c0-5.37,3.29-9.85,9.64-9.85,5.67,0,8.87,3.55,9.51,8.12h3.52V66.87h5.44v23h-5.44V81.43H261c-.55,4.71-3.8,8.35-9.56,8.35C245.06,89.78,241.77,85.3,241.77,79.94Zm5.35-1.59v1.31c0,3.12,1.5,5.18,4.29,5.18s4.3-2.1,4.3-5.18V78.35c0-3.13-1.51-5.18-4.3-5.18S247.12,75.22,247.12,78.35Zm16.18,24.17c-.27.84-2,1.91-4.43,3.22-2.93,1.54-6.27,3.13-9.38,4.43l-2.28-4.85c3.38-1.4,7.22-3.13,9.87-4.57,2.15-1.17,3.16-2.62,3.16-5V91.93h5.85v3.82c0,2.38.87,3.78,3.11,5,2.6,1.4,6.72,3.26,9.92,4.57L276.88,110c-3.34-1.49-6.45-2.94-9.33-4.43-2.38-1.21-3.88-2.29-4.21-3.08Zm9.37-36.21h5.49V94.12h-5.49Z"/>
        <path d="M282.32,97.53c14.68,0,20.21-.19,27.7-1l.19,1.82c-7.36.79-12.16,1-27.89,1ZM305.68,81c0,5.32-5.58,8.44-10.56,8.44s-10.56-3.12-10.56-8.35V78.26c0-5.23,5.58-8.4,10.56-8.4s10.56,3.17,10.56,8.49Zm-1.92-2.57c0-3.73-3.88-6.72-8.64-6.72s-8.64,3-8.64,6.63V81c0,3.64,3.89,6.62,8.64,6.62s8.64-3,8.64-6.71Zm10.33,30.71V66.87h2v42.28Z"/>
        <path d="M334.49,95.47h9.19a64.25,64.25,0,0,0,12.16-1.12l.27,1.87a72.21,72.21,0,0,1-12.89,1.12h-10.7V70.28h2Zm26.19,13.68V66.87h2v42.28Z"/>
        <path d="M405.67,101.07v1.78H367.54v-1.78Zm-32.09-9.28V70.65h26.74v1.77H375.5v7.89H400v1.77H375.5V90h25v1.78Z"/>
      </g>
    </g>
  </g>
</svg>
