<svg xmlns="http://www.w3.org/2000/svg" viewBox="0 0 107.94 38.95">
  <defs>
    <style>
      .cls-1 {
        fill: #e60012;
      }

      .cls-2 {
        fill: #fff;
      }
    </style>
  </defs>
  <g id="레이어_2" data-name="레이어 2">
    <g id="assets">
      <g>
        <rect class="cls-1" width="107.94" height="38.95"/>
        <g>
          <polygon class="cls-2" points="26.79 22.05 24.36 10.83 21.81 10.83 19.36 22.06 16.47 10.83 13.63 10.83 18.24 28.12 20.77 28.12 23.09 17.45 25.4 28.12 27.93 28.12 32.52 10.83 29.68 10.83 26.79 22.05"/>
          <path class="cls-2" d="M40,10.67a5.23,5.23,0,0,0-4,1.76,5.94,5.94,0,0,0-1.62,4.19v5.71a6,6,0,0,0,1.63,4.18,5.32,5.32,0,0,0,7.91,0,6,6,0,0,0,1.62-4.2V16.62A6,6,0,0,0,44,12.42,5.23,5.23,0,0,0,40,10.67Zm0,14.7a2.57,2.57,0,0,1-1.95-.89,3,3,0,0,1-.84-2.15V16.62a3,3,0,0,1,.83-2.17,2.66,2.66,0,0,1,3.92,0,3,3,0,0,1,.83,2.17v5.71A3,3,0,0,1,42,24.48,2.57,2.57,0,0,1,40,25.37Z"/>
          <polygon class="cls-2" points="54.92 20.92 51.52 10.83 48.84 10.83 48.84 28.12 51.55 28.12 51.55 19.05 53.67 25.43 56.17 25.43 58.3 19.05 58.3 28.12 61 28.12 61 10.83 58.33 10.83 54.92 20.92"/>
          <path class="cls-2" d="M69.4,10.83,63.68,28.12h2.95l1.17-3.6h5.71l1.17,3.6h2.95L71.91,10.83Zm3.19,10.78H68.75l1.91-5.94Z"/>
          <polygon class="cls-2" points="88.68 10.83 88.68 21.86 82.88 10.83 80.31 10.83 80.31 28.12 83.1 28.12 83.1 17.09 88.91 28.12 91.47 28.12 91.47 10.83 88.68 10.83"/>
        </g>
      </g>
    </g>
  </g>
</svg>
