<svg xmlns="http://www.w3.org/2000/svg" viewBox="0 0 494.96 206.4">
  <defs>
    <style>
      .cls-1 {
        stroke: #000;
        stroke-miterlimit: 10;
        stroke-width: 6.8px;
      }
    </style>
  </defs>
  <g id="레이어_2" data-name="레이어 2">
    <g id="assets">
      <g>
        <path class="cls-1" d="M12.08,63.83Q17.83,74.38,28,74.37a11.5,11.5,0,0,0,8.89-3.76,13.91,13.91,0,0,0,3.44-9.81q0-8.52-9.92-13.11L20.13,42.87Q6.23,36.36,6.23,23.69A19.8,19.8,0,0,1,11.92,9.12,19.46,19.46,0,0,1,26.29,3.4Q42,3.4,49.91,19l-7.32,3.48Q36.74,12,26.4,12a12.22,12.22,0,0,0-8.73,3.2,10.69,10.69,0,0,0-3.39,8.13,10.43,10.43,0,0,0,2,6.5c1.36,1.79,3.68,3.44,7,4.93L34,39.84q7.53,3.58,10.92,8.63a21.73,21.73,0,0,1,3.4,12.45q0,9.75-5.8,15.91A19.51,19.51,0,0,1,27.65,83q-15,0-23-16.14Z"/>
        <path class="cls-1" d="M72,12.82v26h28.32v8.74H72v26h40.44v8.64H63.91v-78h48.48v8.63Z"/>
        <path class="cls-1" d="M137.57,64.84l-5.64,17.38h-8.46l25.81-78h8.15l25.81,78h-8.46l-5.65-17.38ZM153.35,16,140.4,56.21h26Z"/>
        <path class="cls-1" d="M203.93,24.37V82.22H196.3v-78h8.25l18.39,54.48,18.4-54.48h8.25v78H242V24.37L227,69.21h-8.15Z"/>
        <path class="cls-1" d="M274.56,4.19V73.58H315v8.64H266.52v-78Z"/>
        <path class="cls-1" d="M337.89,12.82v26H366.2v8.74H337.89v26h40.44v8.64H329.84v-78h48.49v8.63Z"/>
        <path class="cls-1" d="M396.92,63.83q5.74,10.55,15.89,10.54a11.5,11.5,0,0,0,8.88-3.76,13.92,13.92,0,0,0,3.45-9.81q0-8.52-9.93-13.11L405,42.87q-13.91-6.51-13.9-19.18a19.77,19.77,0,0,1,5.7-14.57A19.43,19.43,0,0,1,411.14,3.4Q426.8,3.4,434.75,19l-7.31,3.48Q421.57,12,411.24,12a12.21,12.21,0,0,0-8.72,3.2,10.66,10.66,0,0,0-3.4,8.13,10.44,10.44,0,0,0,2,6.5c1.36,1.79,3.67,3.44,6.95,4.93l10.76,5.05q7.51,3.58,10.92,8.63a21.81,21.81,0,0,1,3.39,12.45q0,9.75-5.8,15.91A19.49,19.49,0,0,1,412.49,83q-15,0-23-16.14Z"/>
        <path class="cls-1" d="M452.51,63.83q5.75,10.55,15.89,10.54a11.5,11.5,0,0,0,8.88-3.76,13.92,13.92,0,0,0,3.45-9.81q0-8.52-9.93-13.11l-10.24-4.82q-13.9-6.51-13.9-19.18a19.77,19.77,0,0,1,5.7-14.57A19.42,19.42,0,0,1,466.72,3.4Q482.4,3.4,490.34,19L483,22.46Q477.17,12,466.83,12a12.25,12.25,0,0,0-8.73,3.2,10.69,10.69,0,0,0-3.39,8.13,10.44,10.44,0,0,0,2,6.5c1.35,1.79,3.67,3.44,6.94,4.93l10.77,5.05q7.52,3.58,10.92,8.63a21.81,21.81,0,0,1,3.39,12.45q0,9.75-5.8,15.91A19.49,19.49,0,0,1,468.08,83q-15,0-23-16.14Z"/>
        <path class="cls-1" d="M139.24,124.19a22.62,22.62,0,0,1,17.19,7.56,26.05,26.05,0,0,1,7.06,18.45v26a26,26,0,0,1-7.06,18.44,22.63,22.63,0,0,1-17.19,7.57H115v-78Zm0,69.39a15.1,15.1,0,0,0,11.45-5.1,17.35,17.35,0,0,0,4.75-12.27v-26a17.36,17.36,0,0,0-4.75-12.28,15.1,15.1,0,0,0-11.45-5.1H123.05v60.76Z"/>
        <path class="cls-1" d="M176.44,149.41A26,26,0,0,1,183.55,131a23.19,23.19,0,0,1,34.33-.05,26,26,0,0,1,7.05,18.44V177a26,26,0,0,1-7.11,18.39,23,23,0,0,1-34.22-.06A26,26,0,0,1,176.44,177Zm40.44,0a17.29,17.29,0,0,0-4.75-12.33,15.49,15.49,0,0,0-22.89,0,17.29,17.29,0,0,0-4.75,12.33V177a17.3,17.3,0,0,0,4.81,12.22,15.15,15.15,0,0,0,22.78,0,17.33,17.33,0,0,0,4.8-12.22Z"/>
        <path class="cls-1" d="M294.84,187.42l16.3-63.23h8l-20.69,78h-7.94l-13.37-61.67L263.8,202.22h-7.94l-20.79-78h8l16.3,63.23,13.8-63.23h7.94Z"/>
        <path class="cls-1" d="M340.29,124.19l32.39,61.55V124.19h8.05v78h-8.05l-32.39-61.55v61.55h-8.05v-78Z"/>
      </g>
    </g>
  </g>
</svg>
