<svg xmlns="http://www.w3.org/2000/svg" viewBox="0 0 391.35 126.97">
  <defs>
    <style>
      .cls-1 {
        stroke: #000;
        stroke-miterlimit: 10;
        stroke-width: 9.96px;
      }
    </style>
  </defs>
  <g id="레이어_2" data-name="레이어 2">
    <g id="assets">
      <g>
        <path class="cls-1" d="M40.62,6.13A33.22,33.22,0,0,1,65.88,17.26Q76.26,28.38,76.25,44.37V82.6q0,16-10.37,27.11a33.22,33.22,0,0,1-25.26,11.13H5V6.13Zm0,102a22.2,22.2,0,0,0,16.82-7.5,25.58,25.58,0,0,0,7-18.05V44.37a25.58,25.58,0,0,0-7-18,22.2,22.2,0,0,0-16.82-7.5H16.81v89.33Z"/>
        <path class="cls-1" d="M92.22,43.21a38.19,38.19,0,0,1,10.45-27Q113.11,5,127.86,5A33.28,33.28,0,0,1,153.13,16.1q10.37,11.13,10.36,27.11V83.76a38.23,38.23,0,0,1-10.44,27Q142.6,122,127.86,122T102.74,110.7A38.16,38.16,0,0,1,92.22,83.76Zm59.45,0a25.42,25.42,0,0,0-7-18.12,22.77,22.77,0,0,0-33.64,0,25.42,25.42,0,0,0-7,18.12V83.76a25.41,25.41,0,0,0,7.07,18,22.14,22.14,0,0,0,16.74,7.58q9.67,0,16.74-7.58a25.46,25.46,0,0,0,7.07-18Z"/>
        <path class="cls-1" d="M263.18,99.08l24-92.95H299L268.56,120.84H256.88L237.22,30.19l-19.66,90.65H205.89L175.32,6.13h11.83l24,93L231.39,6.13h11.67Z"/>
        <path class="cls-1" d="M326.93,6.13l47.61,90.48V6.13h11.83V120.84H374.54L326.93,30.36v90.48H315.1V6.13Z"/>
      </g>
    </g>
  </g>
</svg>
