<svg xmlns="http://www.w3.org/2000/svg" viewBox="0 0 637.16 166.89">
  <g id="레이어_2" data-name="레이어 2">
    <g id="assets">
      <g>
        <path d="M10.12,8.62c3.26-1.45,4.42-2.21,4.83-3.4l-4.84.15,0-1.08,5.06-.11c0-.22,0-.45,0-.72V2.16H10.54V1h5.82V3.6c0,3.1-1,3.91-5.69,6.05Zm3.26,1.68H23.59v6.12H13.38Zm1.23,5h7.76V11.43H14.61ZM19.87,4.05h2.48V0h1.24V9.33H22.35V5.19H19.87v4.1H18.62V.22h1.25Z"/>
        <path d="M36.57,8.25c-3,.3-6.64.3-10,.3V7.47h1.75V2.12H26.63V1h9.11V2.12H34V7.36c.84,0,1.65-.09,2.48-.18Zm-3.82-.83V2.12H29.49V7.47C30.63,7.47,31.71,7.45,32.75,7.42Zm7,5.76v.68c0,1.89-2.29,3-5,3s-5-1.14-5-3v-.68c0-1.93,2.29-3,5-3S39.74,11.29,39.74,13.18Zm-1.23.61v-.54c0-1.28-1.83-2-3.76-2S31,12,31,13.25v.54c0,1.28,1.84,2,3.76,2S38.51,15.07,38.51,13.79Zm1.14-4H38.39V0h1.26Z"/>
        <path d="M43.41,13.11H45L43.7,17.16H42.65Z"/>
        <path d="M66.47,7.85V9H51.34V7.85Zm-2.34-6H54.87V5h9.35v1.1H53.63V.7h10.5ZM64,13.4V14c0,1.89-2.41,2.88-5.11,2.88s-5.12-1-5.12-2.88V13.4c0-1.93,2.42-2.88,5.12-2.88S64,11.51,64,13.4Zm-1.22.54v-.47c0-1.21-1.95-1.87-3.89-1.87S55,12.26,55,13.47v.47c0,1.2,1.94,1.87,3.89,1.87S62.8,15.14,62.8,13.94Z"/>
        <path d="M72.5,5.85a5.46,5.46,0,0,1-1.41,1.62c-.63.6-1.69,1.5-2.68,2.29l-.79-.92a28.24,28.24,0,0,0,2.91-2.47,3.23,3.23,0,0,0,1.26-2.95V.77h1.3V3.39A2.94,2.94,0,0,0,74.4,6.23C75.29,7,76.24,7.76,77,8.34l-.75.88c-1-.72-1.75-1.37-2.36-1.89a5.08,5.08,0,0,1-1.41-1.48Zm-.45,9.29h9v1.12H70.77V10.75h1.28Zm8.53-10.4H83.1V5.85H80.58v5.89H79.32V0h1.26Z"/>
        <path d="M85.08,13.11h1.58l-1.29,4.05H84.32Z"/>
        <path d="M108.14,13v1.09H93V13Zm-7.58-7.1a6.39,6.39,0,0,1-2.11,1.84c-1.08.72-2.55,1.6-3.85,2.3l-.68-1a38.53,38.53,0,0,0,3.79-2.21c1.79-1.21,2.2-1.76,2.2-3.71v-2h1.31v2c0,1.95.4,2.5,2.18,3.71a40.6,40.6,0,0,0,3.77,2.2l-.67,1c-1.28-.71-2.74-1.57-3.82-2.29a6.47,6.47,0,0,1-2.1-1.82Z"/>
        <path d="M112.8,1.33V7.56h9.76v1.1h-5V13h6.93v1.09H109.39V13h6.94V8.66h-4.81V1.33Z"/>
        <path d="M140.9,9.71V10.8H134v5.66h-1.27V10.8h-6.94V9.71Zm-13-5.93c0-2.18,2.75-3.37,5.42-3.37s5.42,1.19,5.42,3.37v.83C138.76,6.79,136,8,133.34,8s-5.42-1.19-5.42-3.37Zm9.58.11c0-1.46-1.93-2.32-4.16-2.32s-4.16.86-4.16,2.32V4.5c0,1.46,1.92,2.32,4.16,2.32S137.5,6,137.5,4.5Z"/>
        <path d="M159.55,1.26V9.47h-4.7V13h6.93v1.09H146.65V13h6.94V9.47h-4.7V1.26h1.24v3h8.17V1.26ZM158.3,8.41V5.31h-8.17v3.1Z"/>
        <path d="M178.16,13v1.09H163V13Zm-2-4H165.18V1.49h10.76v1.1h-9.48V7.92h9.66Z"/>
        <path d="M199,7.85V9H183.91V7.85Zm-2.34-6h-9.26V5h9.35v1.1H186.2V.7h10.5Zm-.11,11.6V14c0,1.89-2.41,2.88-5.11,2.88s-5.12-1-5.12-2.88V13.4c0-1.93,2.42-2.88,5.12-2.88S196.59,11.51,196.59,13.4Zm-1.22.54v-.47c0-1.21-2-1.87-3.89-1.87s-3.89.66-3.89,1.87v.47c0,1.2,1.94,1.87,3.89,1.87S195.37,15.14,195.37,13.94Z"/>
        <path d="M205.48,11.67c5.51-3.15,6.16-4.2,6.16-6.9v-2h-6V1.57h7.22V4h4.3V0h1.24V16.46h-1.24V9.52h-4V8.37h4V5.13h-4.3c-.07,3-1.12,4.29-6.74,7.56Z"/>
        <path d="M236.3,7.09V8.17h-6.93V10h4.68v3.8h-9.38v1.71h9.86v1.06H223.42V12.71h9.38V11h-9.47V10h4.78V8.17h-6.94V7.09Zm-2.41-3.81c0,1.62-2.26,2.64-5.15,2.64s-5.15-1-5.15-2.64V2.77c0-1.64,2.25-2.64,5.15-2.64s5.15,1,5.15,2.64Zm-9.06-.07c0,.93,1.75,1.65,3.91,1.65s3.9-.72,3.9-1.65V2.85c0-.94-1.74-1.66-3.9-1.66s-3.91.72-3.91,1.66Z"/>
        <path d="M246.54,5.11V1.19h1.31V5a3.76,3.76,0,0,0,1.08,3.1,37.94,37.94,0,0,0,3.13,3.13l-.82.87c-1.14-1.08-2.15-2.07-2.87-2.85a7.89,7.89,0,0,1-1.15-1.4h0a8.34,8.34,0,0,1-1.28,1.67c-.63.69-1.81,1.89-2.88,2.83l-.84-.88a32.92,32.92,0,0,0,3-3A4.22,4.22,0,0,0,246.54,5.11Zm9.09,11.35h-1.28V0h1.28Z"/>
        <path d="M273.56,8.68v1.1H258.43V8.68Zm-9.73-2.92c-.93.42-2.21.92-3.61,1.42l-.53-1c1.52-.54,2.87-1.06,3.75-1.45,1.44-.65,1.91-1.25,1.91-2.18V1.87h-4.94V.79h11.17V1.87h-4.95v.69c0,.93.43,1.53,1.89,2.18,1,.46,2.52,1,3.74,1.44l-.48,1c-1.34-.47-2.71-1-3.64-1.43A4.92,4.92,0,0,1,266,4.36h0A4.81,4.81,0,0,1,263.83,5.76Zm-1.89,9.38h9.71v1.12h-11v-4.9h1.27Z"/>
        <path d="M288,7.62c0,3-1.51,4.77-4.05,4.77s-4.05-1.77-4.05-4.77V5.92c0-3,1.51-4.75,4.05-4.75S288,3,288,5.94Zm-1.24-1.46c0-2.74-1.12-3.8-2.81-3.8s-2.81,1.06-2.81,3.8V7.4c0,2.74,1.12,3.82,2.81,3.82s2.81-1.08,2.81-3.82Zm5.35,0h2.73V7.31H292.1v9.15h-1.28V0h1.28Z"/>
        <path d="M310.82,7.69V8.77h-6.93v1.8h-1.27V8.77h-6.93V7.69Zm-9.08,7a42.5,42.5,0,0,1-4.26,1.82l-.47-1a38,38,0,0,0,3.92-1.6c1.32-.65,1.69-1.08,1.69-2.5v-.22h1.27v.22c0,1.42.37,1.85,1.69,2.5a38.94,38.94,0,0,0,3.92,1.6l-.46,1a41.66,41.66,0,0,1-4.27-1.82,3.58,3.58,0,0,1-1.51-1.13A3.69,3.69,0,0,1,301.74,14.67Zm-3.65-11V3c0-1.85,2.41-2.79,5.17-2.79s5.16,1,5.16,2.79v.62c0,1.83-2.41,2.79-5.16,2.79S298.09,5.49,298.09,3.66Zm1.22-.53v.44c0,1.11,2,1.8,3.95,1.8s3.94-.69,3.94-1.8V3.13c0-1.11-2-1.8-3.94-1.8S299.31,2,299.31,3.13Z"/>
        <path d="M325.2,8.86h-4.93V13h6.93v1.09H312.07V13H319V8.86h-4.75V1.44H325v1.1h-9.49V7.76h9.67Z"/>
        <path d="M342.1,16.46h-1.26V7.06h-3.69v.56c0,3-1.51,4.77-4,4.77s-4.05-1.77-4.05-4.77V5.92c0-3,1.51-4.75,4.05-4.75s4,1.77,4,4.74h3.69V0h1.26Zm-6.19-10.3c0-2.74-1.12-3.8-2.81-3.8s-2.81,1.06-2.81,3.8V7.4c0,2.74,1.12,3.82,2.81,3.82s2.81-1.08,2.81-3.82Z"/>
        <path d="M351.51,11.24h2.32a35.78,35.78,0,0,0,5.46-.36l.14,1.09a37.51,37.51,0,0,1-5.92.4h-3.26V6.07h6V2.45h-6V1.33h7.24V7.18h-6Zm10.62-5.08h2.74V7.29h-2.74v9.17h-1.27V0h1.27Z"/>
        <path d="M374.75,7.63c0,3-1.51,4.79-4.07,4.79s-4.07-1.78-4.07-4.79V5.92c0-3,1.51-4.77,4.07-4.77s4.07,1.79,4.07,4.79Zm-1.24-1.47c0-2.74-1.13-3.82-2.83-3.82s-2.82,1.08-2.82,3.82V7.42c0,2.74,1.13,3.83,2.82,3.83s2.83-1.09,2.83-3.83Zm5.78,10.3H378V0h1.28Z"/>
        <path d="M397.22,13v1.09H382.09V13ZM395.49,1.51V2.57h-2.4V8.44h2.56V9.51h-12V8.44h2.56V2.57h-2.4V1.51Zm-8,6.93h4.35V2.57h-4.35Z"/>
        <path d="M413.6,7.85V8.93H398.47V7.85Zm-2.25,2.5V14H402v1.51h9.86v1.07H400.72V12.93h9.38V11.42h-9.47V10.35ZM400.69.43h10.57V4H402V5.42h9.67V6.48H400.74V2.94h9.31V1.49h-9.36Z"/>
        <path d="M434.48,7.15V8.23H419.35V7.15ZM424.9,4.86c-1,.4-2.49.92-3.82,1.32l-.47-1c1.64-.51,2.9-.94,3.8-1.3,1.48-.58,1.86-1.1,1.86-2V1.6h-4.94V.52H432.5V1.6h-5v.25c0,.92.36,1.44,1.84,2,.9.36,2.31.83,3.8,1.28l-.43,1c-1.46-.43-2.7-.87-3.84-1.32a4.35,4.35,0,0,1-2-1.2h0A4.32,4.32,0,0,1,424.9,4.86Zm7.33,5V13.7h-9.38v1.77h9.86v1.06H421.6V12.66H431V10.91h-9.47V9.85Z"/>
        <path d="M436.58,11.69c5.53-3.17,6.16-4.24,6.16-6.92V2.7h-6V1.55H444V4.79c0,3.28-.88,4.5-6.74,7.92Zm12.69,4.77H448V0h1.28Z"/>
        <path d="M467.24,8.52V9.61H452.11V8.52Zm-11.62,6.62h9.71v1.12h-11V11.34h1.28Zm.08-10h9.39V6.23H454.42V.63h1.28Z"/>
        <path d="M473.75,5.42V4.34a4.08,4.08,0,0,1,8.1,0V5.42a4.08,4.08,0,0,1-8.1,0Zm1.22-1v.86a2.84,2.84,0,0,0,5.66,0V4.45a2.84,2.84,0,0,0-5.66,0Zm2.83,10.69H487v1.12H476.52V10.88h1.28Zm8.79-3.36h-1.26V0h1.26Z"/>
        <path d="M500.28,8.62a25.61,25.61,0,0,0,.56-5.16V2.18h-9.49V1.08h10.79V3a28.71,28.71,0,0,1-.54,5.58h2.9v1.1h-6.94v6.74h-1.27V9.72h-6.92V8.62Z"/>
        <path d="M506.24,11.65c5.53-3.17,6.12-4.21,6.12-6.9v-2h-5.94V1.57h7.18v3.2c0,3.28-.84,4.48-6.7,7.91Zm12.22-5.37h2.74V7.42h-2.74v9h-1.27V0h1.27Z"/>
        <path d="M541.76,7V8H526.63V7Zm-2.25,2.79v3.93h-9.39v1.78H540v1.08H528.88V12.6h9.38V10.82h-9.47V9.74Zm-9.3-5.63h9.4V5.22H528.94V.4h1.27Z"/>
        <path d="M556.66,16.46H555.4V7.06h-3.69v.56c0,3-1.51,4.77-4.05,4.77s-4-1.77-4-4.77V5.92c0-3,1.51-4.75,4-4.75s4,1.77,4.05,4.74h3.69V0h1.26Zm-6.19-10.3c0-2.74-1.12-3.8-2.81-3.8s-2.81,1.06-2.81,3.8V7.4c0,2.74,1.11,3.82,2.81,3.82s2.81-1.08,2.81-3.82Z"/>
        <path d="M561.66.9V6.57a50,50,0,0,0,7.76-.43l.14,1.13a56.94,56.94,0,0,1-9.18.45V.9Zm.76,9.17h9.9v6.35h-9.9Zm1.22,5.22h7.45V11.2h-7.45Zm8.68-11.53h2.52V4.88h-2.52V9.09h-1.26V0h1.26Z"/>
        <path d="M576.26,7.53V6.12c0-3.08,1.13-4.79,3.51-4.79s3.51,1.71,3.51,4.79v.09h2.21V.34h1.26V15.65h-1.26V7.35h-2.21v.18c0,3.08-1.13,4.79-3.51,4.79S576.26,10.61,576.26,7.53Zm1.22-1.26V7.38c0,2.47.69,3.77,2.29,3.77s2.28-1.3,2.28-3.77V6.27c0-2.47-.68-3.77-2.28-3.77S577.48,3.8,577.48,6.27Zm12.44,10.19h-1.26V0h1.26Z"/>
        <path d="M601.66,11.81a28,28,0,0,1-3.77.24h-.75V1.51h4.08V2.67H598.4v8.22a23.58,23.58,0,0,0,3.15-.19Zm5.69,0a32.3,32.3,0,0,1-4.22.26h-.9V1.51h4.36V2.67h-3.1v8.22a28.18,28.18,0,0,0,3.73-.23Zm2.28-5.7h2.47V7.22h-2.47v9.24h-1.28V0h1.28Z"/>
        <path d="M615.21,11.24h2.32a35.86,35.86,0,0,0,5.46-.36l.14,1.09a37.59,37.59,0,0,1-5.92.4H614V6.07h6V2.45h-6V1.33h7.24V7.18h-6Zm10.62-5.08h2.74V7.29h-2.74v9.17h-1.28V0h1.28Z"/>
        <path d="M33.29,37.62c0,3-1.51,4.77-4.05,4.77s-4-1.77-4-4.77v-1.7c0-3,1.51-4.75,4-4.75s4.05,1.78,4.05,4.77Zm-1.24-1.46c0-2.74-1.11-3.8-2.81-3.8s-2.81,1.06-2.81,3.8V37.4c0,2.74,1.12,3.82,2.81,3.82s2.81-1.08,2.81-3.82Zm5.35,0h2.74v1.13H37.4v9.15H36.12V30H37.4Z"/>
        <path d="M56.12,37.69v1.08H49.19v1.8H47.93v-1.8H41V37.69Zm-9.08,7a41.53,41.53,0,0,1-4.26,1.82l-.47-1a38,38,0,0,0,3.92-1.6c1.32-.65,1.7-1.08,1.7-2.5v-.22h1.26v.22c0,1.42.38,1.85,1.69,2.5a38.94,38.94,0,0,0,3.92,1.6l-.46,1a42.62,42.62,0,0,1-4.27-1.82,3.58,3.58,0,0,1-1.51-1.13A3.69,3.69,0,0,1,47,44.67Zm-3.65-11V33c0-1.85,2.41-2.79,5.17-2.79s5.16,1,5.16,2.79v.62c0,1.83-2.41,2.79-5.16,2.79S43.39,35.49,43.39,33.66Zm1.22-.53v.44c0,1.11,2,1.8,4,1.8s3.94-.69,3.94-1.8v-.44c0-1.11-2-1.8-3.94-1.8S44.61,32,44.61,33.13Z"/>
        <path d="M70.5,38.86H65.57V43H72.5v1.09H57.38V43h6.93V38.86H59.55V31.44H70.32v1.1H60.83v5.22H70.5Z"/>
        <path d="M87.4,46.46H86.14v-9.4H82.45v.56c0,3-1.51,4.77-4,4.77s-4.05-1.77-4.05-4.77v-1.7c0-3,1.51-4.75,4.05-4.75s4,1.77,4,4.74h3.69V30H87.4Zm-6.19-10.3c0-2.74-1.12-3.8-2.81-3.8s-2.81,1.06-2.81,3.8V37.4c0,2.74,1.12,3.82,2.81,3.82s2.81-1.08,2.81-3.82Z"/>
        <path d="M94.72,40.84h1.66V32.75H94.74V31.66H103v1.09h-1.62v8c.7,0,1.37-.11,2-.2l.11,1.06a36.68,36.68,0,0,1-5,.29h-3.7Zm5.41,0V32.75H97.61v8.09h.63C98.9,40.84,99.53,40.84,100.13,40.82ZM105.58,36h2.16V30H109V46.46h-1.26V37.17h-2.16v8.48h-1.26V30.34h1.26Z"/>
        <path d="M116,36.19c0,.31-.61.87-1.4,1.62-.63.6-1.69,1.5-2.68,2.29l-.8-.92A27.27,27.27,0,0,0,114,36.72a3.25,3.25,0,0,0,1.26-3v-3h1.3v3a2.94,2.94,0,0,0,1.31,2.84c.89.78,1.84,1.53,2.63,2.11l-.75.88c-1-.72-1.75-1.37-2.36-1.89A5.08,5.08,0,0,1,116,36.19Zm-.14,9H125v1.12H114.56V40.84h1.28Zm7.54-12.73V30h1.25V41.76h-1.25V36.57h-3.61v-1.1h3.61v-2h-3.61v-1.1Z"/>
        <path d="M138.83,42.42a96.86,96.86,0,0,1-11,.42V41.72a99.77,99.77,0,0,0,10.91-.39Zm-10.16-7v-.87c0-2,2-3.47,4.29-3.47s4.28,1.53,4.28,3.47v.87c0,1.94-1.94,3.47-4.28,3.47S128.67,37.38,128.67,35.44Zm1.23-.79v.72c0,1.35,1.47,2.43,3.06,2.43S136,36.72,136,35.37v-.72c0-1.36-1.48-2.44-3.06-2.44S129.9,33.29,129.9,34.65Zm11.36,11.81H140V30h1.28Z"/>
        <path d="M156.72,39h-7.4V30.83h1.22v3h5v-3h1.23Zm-6.18-1.1h5V35h-5Zm2.61,7.22h9.22v1.12H151.88V41h1.27Zm7.57-12.35V30H162V41.78h-1.24V37.45h-3V36.36h3V33.89h-3v-1.1Z"/>
        <path d="M175.37,42.91a90.26,90.26,0,0,1-10.66.41V42.21c1.82,0,3.31,0,4.61,0V40.12c-2-.18-3.37-1.41-3.37-2.74V36.7c0-1.48,1.62-2.76,3.91-2.76s3.91,1.3,3.91,2.76v.68c0,1.28-1.28,2.47-3.17,2.72v2c1.76-.06,3.18-.17,4.66-.33Zm-4.88-11h4V33h-9.45V31.91h4.18V29.86h1.26Zm-3.33,4.88v.5c0,.88,1.08,1.78,2.7,1.78s2.7-.9,2.7-1.78v-.5c0-.88-1.08-1.77-2.7-1.77S167.16,35.91,167.16,36.79Zm10.62,0h2.61v1.13h-2.61v8.54H176.5V30h1.28Z"/>
        <path d="M194.16,38.86h-4.93V43h6.93v1.09H181V43H188V38.86h-4.76V31.44H194v1.1h-9.49v5.22h9.67Z"/>
        <path d="M217,38.21v1.08h-6.75v3.58H209V39.29h-7.12V38.21Zm-11.61,6.93h9.7v1.12h-11v-5h1.28ZM205.5,35h9.4v1.1H204.22v-5.5h1.28Z"/>
        <path d="M218.78,37.53V36.12c0-3.08,1.13-4.79,3.51-4.79s3.51,1.71,3.51,4.79v.09H228V30.34h1.26V45.65H228v-8.3H225.8v.18c0,3.08-1.13,4.79-3.51,4.79S218.78,40.61,218.78,37.53ZM220,36.27v1.11c0,2.47.69,3.77,2.29,3.77s2.29-1.3,2.29-3.77V36.27c0-2.47-.69-3.77-2.29-3.77S220,33.8,220,36.27Zm12.45,10.19h-1.26V30h1.26Z"/>
        <path d="M250.43,38.32a92.34,92.34,0,0,1-10.91.43V37.63a96.75,96.75,0,0,0,10.8-.39Zm-5.82-2.68a27.44,27.44,0,0,1-3.62.23h-.74v-5.1h3.93v1.12H241.5v2.86a22.8,22.8,0,0,0,3-.19Zm8.19,4.59v6.21H242.23V40.23h1.25v2h8.08v-2Zm-1.24,5.07v-2h-8.08v2Zm-1.93-9.43h-4.44v-5.1h4.23v1.12h-3v2.86h3.2Zm3.17,3.38h-1.26V30h1.26Z"/>
        <path d="M258.25,40.79h2.36a31.81,31.81,0,0,0,5.5-.45l.16,1.13a34.94,34.94,0,0,1-5.78.47H257V31.35h1.27Zm10.92,5.67h-1.28V30h1.28Z"/>
        <path d="M272.85,31.49h7.49v1.16h-6.21v8.26h2.12a32.38,32.38,0,0,0,5.6-.45L282,41.6a35.86,35.86,0,0,1-6.09.46h-3.08ZM284.7,36.1h2.74v1.14H284.7v9.22h-1.28V30h1.28Z"/>
        <path d="M289,43.2h1.82V45H289Z"/>
        <path d="M298.11,31.08h7.54v1.13h-6.27v5.48a57.17,57.17,0,0,0,7.75-.36l.14,1.11a63.21,63.21,0,0,1-9.16.38Zm3.49,14h9.07v1.14H300.32V40.84h1.28Zm8.57-10.64h2.52V35.6h-2.52v6.18h-1.26V30h1.26Z"/>
        <path d="M328.73,38.3v1.08H322v3.49h-1.27V39.38H313.6V38.3Zm-8.19-8h1.27v1.46c0,1.31.49,1.83,1.88,2.54A39.79,39.79,0,0,0,327.56,36l-.51,1c-1.47-.57-2.79-1.18-3.76-1.67a4.94,4.94,0,0,1-2.11-1.53h0a4.85,4.85,0,0,1-2.11,1.55c-1,.48-2.27,1.1-3.75,1.67l-.54-1a39.79,39.79,0,0,0,3.87-1.71c1.39-.71,1.9-1.23,1.9-2.54Zm-3.43,14.85h9.73v1.12h-11v-5h1.27Z"/>
        <path d="M334.56,32.59v-2.5h1.27v2.5H340v1.12h-9.58V32.59Zm-3.28,6.7v-1a3.94,3.94,0,0,1,7.81,0v1a3.94,3.94,0,0,1-7.81,0Zm1.21-.86v.75a2.72,2.72,0,0,0,5.4,0v-.75a2.72,2.72,0,0,0-5.4,0Zm11.11,8h-1.28V30h1.28Z"/>
        <path d="M351.71,41.69c5.53-3.17,6.16-4.24,6.16-6.92V32.7h-6V31.55h7.22v3.24c0,3.28-.88,4.5-6.73,7.92Zm12.69,4.77h-1.28V30h1.28Z"/>
        <path d="M382.37,37.87V39H367.24v-1.1Zm-11.54-7.33v4.23h9.39v1.1H369.55V30.54Zm9.09,12.84V44c0,1.89-2.41,2.9-5.12,2.9s-5.11-1-5.11-2.9v-.61c0-1.93,2.41-2.9,5.11-2.9S379.92,41.49,379.92,43.38Zm-1.23.54v-.47c0-1.21-1.94-1.89-3.89-1.89s-3.88.68-3.88,1.89v.47c0,1.2,1.94,1.89,3.88,1.89S378.69,45.12,378.69,43.92Z"/>
        <path d="M388.65,35.47a5.46,5.46,0,0,1-1.41,1.62c-.63.6-1.69,1.5-2.68,2.29l-.79-.92A28.16,28.16,0,0,0,386.68,36a3.25,3.25,0,0,0,1.26-3v-2.3h1.3V33a2.94,2.94,0,0,0,1.31,2.84c.89.78,1.84,1.53,2.63,2.11l-.75.88c-1-.72-1.75-1.37-2.36-1.89a5.08,5.08,0,0,1-1.41-1.48Zm8.68,7.66v.7c0,1.89-2.29,3.06-5,3.06s-5-1.17-5-3.06v-.7c0-2,2.29-3.05,5-3.05S397.33,41.24,397.33,43.13Zm-1.23.66v-.61c0-1.28-1.84-2-3.76-2s-3.77.74-3.77,2v.61c0,1.28,1.84,2,3.77,2S396.1,45.07,396.1,43.79ZM396,33.71V30h1.26v9.71H396V34.83h-3.7V33.71Z"/>
        <path d="M408.16,38.79h-7.35V31h7.35Zm-1.23-6.65H402v5.53h4.89Zm-2.57,13h9.07v1.12H403.08V40.84h1.28Zm8.57-10.33h2.52v1.11h-2.52v5.86h-1.26V30h1.26Z"/>
        <path d="M431.51,37.36v1.08H416.38V37.36Zm-2.25,2.53v3.83h-9.37v1.75h9.85v1.06H418.65V42.68H428V41h-9.45V39.89Zm-.17-6.47c0,1.69-2.25,2.72-5.14,2.72s-5.16-1-5.16-2.72v-.54c0-1.71,2.26-2.72,5.16-2.72s5.14,1,5.14,2.72Zm-9-.05c0,1,1.74,1.71,3.91,1.71s3.9-.74,3.9-1.71v-.43c0-1-1.74-1.72-3.9-1.72S420,32,420,32.94Z"/>
        <path d="M452.39,37.71v1.08h-6.93v1.83c2.43.15,4.48,1.12,4.48,2.87V44c0,1.87-2.41,2.9-5.12,2.9s-5.11-1-5.11-2.9v-.52c0-1.75,2-2.7,4.48-2.85V38.79h-6.93V37.71Zm-9.73-2.4c-1,.43-2,.81-3.63,1.35l-.51-1c1.64-.54,2.87-1,3.77-1.38,1.47-.65,1.89-1.16,1.89-2.09v-.45h-4.94V30.67h11.17v1.08h-5v.45c0,.93.39,1.46,1.87,2.09.88.37,2.25.88,3.76,1.36l-.47,1c-1.47-.48-2.72-1-3.65-1.35A4.85,4.85,0,0,1,444.82,34h0A4.92,4.92,0,0,1,442.66,35.31Zm6,8.61v-.36c0-1.28-2-1.89-3.89-1.89s-3.88.63-3.88,1.87v.38c0,1.28,2,1.89,3.88,1.89S448.71,45.2,448.71,43.92Z"/>
        <path d="M458.13,35.11V31.19h1.31V35a3.76,3.76,0,0,0,1.08,3.1,37.94,37.94,0,0,0,3.13,3.13l-.82.87c-1.14-1.08-2.15-2.07-2.87-2.85a7.89,7.89,0,0,1-1.15-1.4h0a8.34,8.34,0,0,1-1.28,1.67c-.63.69-1.81,1.89-2.88,2.83l-.84-.88a35.68,35.68,0,0,0,3-3A4.22,4.22,0,0,0,458.13,35.11Zm9.09,11.35h-1.28V30h1.28Z"/>
        <path d="M473.48,32V30h1.26v2h3.08v1.1h-7.69V32Zm-2.74,4.9v-.63c0-1.28,1.35-2.4,3.37-2.4s3.37,1.12,3.37,2.4v.63c0,1.26-1.35,2.39-3.37,2.39S470.74,38.14,470.74,36.88Zm5.82,8a5.88,5.88,0,0,1-1.1-1.19A5.25,5.25,0,0,1,474.18,45c-.45.39-1.08.88-1.93,1.51l-.68-.9c.77-.58,1.4-1,1.86-1.42,1.36-1.15,1.42-1.55,1.42-2.7v-1h1.24v1c0,1.08,0,1.35,1.17,2.47a12.53,12.53,0,0,0,1.13,1,12.81,12.81,0,0,0,1.14-1c1.17-1.12,1.17-1.39,1.17-2.47v-1h1.24v1c0,1.15.06,1.55,1.42,2.7.45.38,1.08.84,1.86,1.42l-.68.9c-.85-.63-1.48-1.12-1.93-1.51a5.25,5.25,0,0,1-1.28-1.28,5.88,5.88,0,0,1-1.1,1.19c-.45.41-1.06,1-1.84,1.6C477.62,45.86,477,45.32,476.56,44.91Zm-4.67-8.57v.45c0,.79.9,1.44,2.22,1.44s2.21-.65,2.21-1.44v-.45c0-.79-.9-1.44-2.21-1.44S471.89,35.55,471.89,36.34Zm8.5-2.2h2.34V30H484v9.74h-1.25V35.28h-2.34v4.21h-1.24V30.22h1.24Z"/>
        <path d="M487.5,31.08h7.6V32.2h-6.32V38a55.34,55.34,0,0,0,7.74-.36l.15,1.1a65,65,0,0,1-9.17.38Zm3.78,14h9.22v1.14H490V41h1.28Zm8.81-3.27h-1.26V35.46h-4.72V34.32h4.72V30h1.26Z"/>
        <path d="M518,42.23a92.13,92.13,0,0,1-10.64.41V41.52h3.47V36.27h1.28v5.22c2.32-.06,4-.16,5.78-.36Zm-1.6-10.65v2a29.15,29.15,0,0,1-.44,5.4l-1.28-.16a24.94,24.94,0,0,0,.44-5V32.72h-6.94V31.58Zm4,4.69H523V37.4h-2.61v9.06h-1.28V30h1.28Z"/>
        <path d="M524.36,41.67c5.48-3.12,6.18-4.16,6.18-6.88V32.72h-6V31.57h7.25v3.2c0,.43,0,.81,0,1.17H536V30h1.26V46.46H536V37.09h-4.54c-.57,1.82-2.19,3.14-6.48,5.6Z"/>
        <path d="M550.74,42.55A89.87,89.87,0,0,1,540.1,43V41.85c1.71,0,3.15,0,4.39,0V38.68c-2.07-.24-3.64-1.69-3.64-3.4v-.87c0-1.89,1.89-3.44,4.25-3.44s4.25,1.57,4.25,3.44v.87c0,1.69-1.55,3.13-3.58,3.4v3.11c1.85-.07,3.31-.16,4.86-.34Zm-8.66-8.07v.72c0,1.28,1.44,2.38,3,2.38s3-1.1,3-2.38v-.72c0-1.27-1.44-2.37-3-2.37S542.08,33.21,542.08,34.48Zm11.09,2h2.61V37.6h-2.61v8.86h-1.28V30h1.28Z"/>
        <path d="M571.55,38.52v1.09H556.42V38.52Zm-11.62,6.62h9.71v1.12h-11V41.34h1.28Zm.07-10h9.4v1.12H558.73v-5.6H560Z"/>
        <path d="M578.18,30.72h7.55v1.12h-6.29v4.43a57.48,57.48,0,0,0,7.77-.36l.14,1.09a63.28,63.28,0,0,1-9.17.38Zm12.07,8.35v4.25h-8.68v2.11h9.11v1.08H580.33V42.26H589V40.17h-8.76v-1.1Zm0-5.74h2.52v1.12h-2.52V38.1H589V30h1.26Z"/>
        <path d="M596.2,41.24h2.47a35.64,35.64,0,0,0,5.45-.36l.15,1.09a37.64,37.64,0,0,1-5.93.4h-3.4v-6.3h6V32.45h-6V31.33h7.22v5.85h-6Zm11.06,5.22H606V30h1.28Z"/>
        <path d="M611,43.11h1.59l-1.3,4h-1Z"/>
        <path d="M2.14,64.86C2.14,62.52,4.61,61,7.56,61S13,62.52,13,64.86v.88a3.48,3.48,0,0,1-1.85,3V73h4v1.09H0V73H4V68.71a3.4,3.4,0,0,1-1.86-3Zm1.26.06v.77c0,1.62,1.82,2.75,4.16,2.75s4.16-1.13,4.16-2.75v-.77c0-1.63-1.84-2.76-4.16-2.76S3.4,63.29,3.4,64.92Zm1.86,4.35V73H9.87V69.27a7.21,7.21,0,0,1-2.31.34A7.65,7.65,0,0,1,5.26,69.27Z"/>
        <path d="M31.5,67.85V69H16.38v-1.1Zm-9.72-2.48c-1,.43-2.16.86-3.64,1.35l-.5-1c1.64-.54,2.86-1,3.76-1.39,1.48-.65,1.89-1.15,1.89-2.09v-.47H18.36V60.7H29.52v1.08H24.57v.47c0,.94.4,1.46,1.88,2.09.88.38,2.25.88,3.76,1.37l-.47,1c-1.48-.49-2.72-1-3.66-1.35a4.85,4.85,0,0,1-2.14-1.3h0A4.71,4.71,0,0,1,21.78,65.37Zm-3.19,5.47h10.7v5.58H18.59Zm1.23,4.45h8.25V72H19.82Z"/>
        <path d="M45.94,67.62c0,3-1.51,4.77-4,4.77s-4-1.77-4-4.77v-1.7c0-3,1.51-4.75,4-4.75s4,1.78,4,4.77ZM44.7,66.16c0-2.74-1.12-3.8-2.81-3.8s-2.81,1.06-2.81,3.8V67.4c0,2.74,1.12,3.82,2.81,3.82s2.81-1.08,2.81-3.82Zm5.34,0h2.74v1.13H50v9.15H48.77V60H50Z"/>
        <path d="M68.76,67.69v1.08H61.83v1.8H60.57v-1.8H53.64V67.69Zm-9.07,7a42.62,42.62,0,0,1-4.27,1.82l-.47-1a38.21,38.21,0,0,0,3.93-1.6c1.31-.65,1.69-1.08,1.69-2.5v-.22h1.26v.22c0,1.42.38,1.85,1.7,2.5a38,38,0,0,0,3.92,1.6l-.47,1a42.62,42.62,0,0,1-4.27-1.82,3.71,3.71,0,0,1-1.51-1.13A3.58,3.58,0,0,1,59.69,74.67ZM56,63.66V63c0-1.85,2.41-2.79,5.16-2.79s5.17,1,5.17,2.79v.62c0,1.83-2.41,2.79-5.17,2.79S56,65.49,56,63.66Zm1.22-.53v.44c0,1.11,2,1.8,3.94,1.8s4-.69,4-1.8v-.44c0-1.11-2-1.8-4-1.8S57.26,62,57.26,63.13Z"/>
        <path d="M83.15,68.86H78.21V73h6.93v1.09H70V73H77V68.86H72.2V61.44H83v1.1H73.48v5.22h9.67Z"/>
        <path d="M100.05,76.46H98.79v-9.4H95.1v.56c0,3-1.52,4.77-4.06,4.77S87,70.62,87,67.62v-1.7c0-3,1.52-4.75,4.05-4.75s4,1.77,4.06,4.74h3.69V60h1.26Zm-6.2-10.3c0-2.74-1.11-3.8-2.81-3.8s-2.8,1.06-2.8,3.8V67.4c0,2.74,1.11,3.82,2.8,3.82s2.81-1.08,2.81-3.82Z"/>
        <path d="M109.21,71.67h5v-2h-6.93V68.59H122.4v1.08h-6.93v2h4.76V76.6H119V72.77h-9.75Zm.28-11.09h10.57v3.76h-9.31V66h9.67v1.06H109.55V63.29h9.31V61.64h-9.37Z"/>
        <path d="M138.78,68.66v1.1H123.66v-1.1Zm-11.61,6.48h9.72v1.12h-11V71.42h1.28Zm-1.12-11v-.69c0-1.84,2.24-3,5.17-3s5.17,1.2,5.17,3v.69c0,1.83-2.23,3-5.17,3S126.05,65.94,126.05,64.11Zm1.23-.6V64c0,1.18,1.84,2,3.94,2s3.95-.87,3.95-2v-.51c0-1.19-1.84-2-3.95-2S127.28,62.32,127.28,63.51Z"/>
        <path d="M145.3,64.41v-.79c0-1.75,1.65-3.28,4-3.28s4,1.53,4,3.28v.79c0,1.75-1.66,3.28-4,3.28S145.3,66.16,145.3,64.41Zm1.22-.68v.57c0,1.23,1.15,2.25,2.79,2.25s2.79-1,2.79-2.25v-.57a2.85,2.85,0,0,0-5.58,0Zm11.6,5.34v4.25h-8.83v2.11h9.26v1.08h-10.5V72.26h8.82V70.17H148v-1.1Zm0-1h-1.26V60h1.26Z"/>
        <path d="M165.69,65.42c-.05.31-.61.86-1.4,1.62-.63.59-1.7,1.49-2.69,2.29l-.79-.92a28.37,28.37,0,0,0,2.92-2.47A3.25,3.25,0,0,0,165,63V60.74h1.3V63a2.93,2.93,0,0,0,1.31,2.85c.88.77,1.84,1.53,2.63,2.1l-.76.89c-.95-.72-1.74-1.37-2.36-1.89a5.27,5.27,0,0,1-1.4-1.48Zm8.18,7.71v.68c0,1.89-2.2,3.08-4.9,3.08s-4.9-1.19-4.9-3.08v-.68c0-1.93,2.2-3.08,4.9-3.08S173.87,71.24,173.87,73.13Zm-1.23.63v-.58c0-1.28-1.75-2.05-3.67-2.05s-3.68.77-3.68,2.05v.58c0,1.27,1.75,2,3.68,2S172.64,75,172.64,73.76Zm1.14-9.6h2.52v1.12h-2.52v4.41h-1.27V60h1.27Z"/>
        <path d="M177.79,67.53V66.12c0-3.08,1.13-4.79,3.51-4.79s3.51,1.71,3.51,4.79v.09H187V60.34h1.26V75.65H187v-8.3h-2.21v.18c0,3.08-1.14,4.79-3.51,4.79S177.79,70.61,177.79,67.53ZM179,66.27v1.11c0,2.47.68,3.77,2.29,3.77s2.28-1.3,2.28-3.77V66.27c0-2.47-.68-3.77-2.28-3.77S179,63.8,179,66.27Zm12.44,10.19h-1.26V60h1.26Z"/>
        <path d="M198,65.08V61.21h1.32V65a3.74,3.74,0,0,0,1.08,3.09,39.43,39.43,0,0,0,3.13,3.14l-.83.86c-1.13-1.08-2.14-2.07-2.86-2.84a7.85,7.85,0,0,1-1.15-1.41h0a8.33,8.33,0,0,1-1.28,1.68c-.63.68-1.82,1.89-2.88,2.82l-.85-.88a34.45,34.45,0,0,0,3-3A4.26,4.26,0,0,0,198,65.08Zm9.35,11.38h-1.26V66.37h-3.91V65.22h3.91V60h1.26Z"/>
        <path d="M223.18,68.86h-4.93V73h6.93v1.09H210.06V73H217V68.86h-4.75V61.44H223v1.1h-9.48v5.22h9.66Z"/>
        <path d="M231.71,63.89c0-1.66,1.62-3.28,4-3.28s4,1.62,4,3.28v.86c0,1.66-1.62,3.28-4,3.28s-4-1.62-4-3.28Zm6.81.13a2.85,2.85,0,0,0-5.58,0v.61a2.85,2.85,0,0,0,5.58,0Zm6,5.36v7.06h-10V69.38h1.24v2.27h7.56V69.38Zm-1.24,5.92V72.77h-7.56V75.3Zm1.24-6.89h-1.26V60h1.26Z"/>
        <path d="M262.44,67.36v1.08H247.32V67.36Zm-2.25,2.53v3.83h-9.36v1.75h9.85v1.06H249.59V72.68H259V71H249.5V69.89ZM260,63.42c0,1.69-2.25,2.72-5.15,2.72s-5.15-1-5.15-2.72v-.54c0-1.71,2.25-2.72,5.15-2.72s5.15,1,5.15,2.72ZM251,63.37c0,1,1.75,1.71,3.91,1.71s3.91-.74,3.91-1.71v-.43c0-1-1.75-1.72-3.91-1.72S251,62,251,62.94Z"/>
        <path d="M283.32,69.45v1.1h-6.91v5.91h-1.28V70.55H268.2v-1.1Zm-7.56-5h0a5.12,5.12,0,0,1-2.1,1.53c-1,.48-2.38,1.13-3.84,1.71l-.56-1a39.67,39.67,0,0,0,4-1.76c1.39-.71,1.89-1.3,1.89-2.9V60.58h1.28V62a2.72,2.72,0,0,0,1.87,2.9,40.09,40.09,0,0,0,3.95,1.74l-.54,1c-1.46-.57-2.83-1.2-3.8-1.69A5,5,0,0,1,275.76,64.45Z"/>
        <path d="M289.85,65V64a4.07,4.07,0,0,1,8,0v1a4.07,4.07,0,0,1-8,0Zm4.67,8.64a6.18,6.18,0,0,1-1.28,1.33c-.45.4-1.06.9-1.91,1.55l-.7-.9c.77-.57,1.38-1.06,1.83-1.46,1.35-1.17,1.44-1.6,1.44-2.77V69.92h1.25v1.5c0,1.09,0,1.44,1.18,2.57a14,14,0,0,0,1.12,1,14,14,0,0,0,1.12-1c1.15-1.13,1.19-1.48,1.19-2.57v-1.5H301v1.44c0,1.17.09,1.6,1.44,2.77.45.4,1.06.89,1.84,1.46l-.71.9c-.84-.65-1.46-1.15-1.91-1.55a5.75,5.75,0,0,1-1.27-1.33,15.33,15.33,0,0,1-2.94,2.88A15.06,15.06,0,0,1,294.52,73.61Zm-3.44-9.54v.79a2.82,2.82,0,0,0,5.58,0v-.79a2.82,2.82,0,0,0-5.58,0Zm11.59,4.81h-1.26V60h1.26Z"/>
        <path d="M318.58,68.86h-4.93V73h6.93v1.09H305.46V73h6.93V68.86h-4.75V61.44H318.4v1.1h-9.48v5.22h9.66Z"/>
        <path d="M324.05,60.58h10.57v3.83h-9.31v1.73H335V67.2h-5v1.71H337V70H321.84V68.91h6.93V67.2h-4.66V63.37h9.31V61.64h-9.37Zm-.29,11h11v5h-1.26V72.71h-9.76Z"/>
        <path d="M352,62.65h-3.73v2.57a3.65,3.65,0,0,0,1.07,3,35.74,35.74,0,0,0,3.09,3.07l-.83.84c-1.24-1.15-2.1-2-2.82-2.81A7.72,7.72,0,0,1,347.65,68h0a7.52,7.52,0,0,1-1.31,1.7c-.49.5-1.69,1.78-2.77,2.71l-.85-.84a36.49,36.49,0,0,0,3-2.94,4.11,4.11,0,0,0,1.3-3.33V62.65H343.2V61.53H352Zm3.49,3.63h2.74v1.14h-2.74v9h-1.27V60h1.27Z"/>
        <path d="M359.67,65.42V64.34a4.06,4.06,0,0,1,8.07,0v1.08a4.06,4.06,0,0,1-8.07,0Zm1.23-1v.86a2.82,2.82,0,0,0,5.62,0v-.86a2.82,2.82,0,0,0-5.62,0ZM364,75.14h9.22v1.12H362.7V70.88H364Zm7.56-12.78V60h1.24V71.78h-1.24v-4.4h-3v-1.1h3V63.46h-3v-1.1Z"/>
        <path d="M390.6,73v1.09H375.48V73ZM383,65.94a6.31,6.31,0,0,1-2.1,1.84c-1.09.72-2.56,1.6-3.86,2.3l-.68-1a40.14,40.14,0,0,0,3.8-2.21c1.78-1.21,2.19-1.76,2.19-3.71v-2h1.32v2c0,1.95.39,2.5,2.18,3.71a38.93,38.93,0,0,0,3.76,2.2l-.67,1c-1.27-.71-2.73-1.57-3.81-2.29A6.43,6.43,0,0,1,383,65.94Z"/>
        <path d="M394.14,67.4a66.83,66.83,0,0,0,7.57-.29l.12,1.1a77.28,77.28,0,0,1-8.93.31V64.11h5.49v-2.2H392.9V60.79h6.74v4.4h-5.5Zm11.4,2.34v6.72h-10V69.74h1.24v2.13h7.56V69.74Zm-1.24,5.58V73h-7.56v2.34Zm0-12V60h1.26v8.77h-1.26v-4.3H400.9V63.35Z"/>
        <path d="M414,73V66.72h1.3V73h8.08v1.09H408.24V73Zm5.15-2.27a34.54,34.54,0,0,0,.65-6.61V62.67h-9.63V61.55h10.94v1.94a37.22,37.22,0,0,1-.63,7.44Z"/>
        <path d="M437.56,64h4V60h1.26V70.48h-1.26V65.11h-4v3.12h-7.42V61h7.42Zm-1.2-1.86h-5v5h5Zm.63,7.6h1.26V71.2c0,1.49.48,2,1.89,2.75.93.49,2.3,1.08,3.38,1.52l-.52,1c-1.17-.48-2.45-1.1-3.26-1.51a4.73,4.73,0,0,1-2.12-1.57A4.84,4.84,0,0,1,435.49,75c-.81.41-2.09,1-3.26,1.51l-.54-1c1.08-.44,2.47-1,3.41-1.52,1.33-.68,1.89-1.26,1.89-2.75Z"/>
        <path d="M460.62,73v1.09H445.5V73ZM453,65.94a6.31,6.31,0,0,1-2.1,1.84c-1.09.72-2.56,1.6-3.86,2.3l-.68-1a40.14,40.14,0,0,0,3.8-2.21c1.78-1.21,2.19-1.76,2.19-3.71v-2h1.32v2c0,1.95.39,2.5,2.18,3.71a38.93,38.93,0,0,0,3.76,2.2l-.67,1c-1.27-.71-2.73-1.57-3.81-2.29a6.43,6.43,0,0,1-2.11-1.82Z"/>
        <path d="M464.16,67.4a66.83,66.83,0,0,0,7.57-.29l.12,1.1a77.28,77.28,0,0,1-8.93.31V64.11h5.49v-2.2h-5.49V60.79h6.74v4.4h-5.5Zm11.4,2.34v6.72H465.51V69.74h1.25v2.13h7.56V69.74Zm-1.24,5.58V73h-7.56v2.34Zm0-12V60h1.26v8.77H474.3v-4.3h-3.38V63.35Z"/>
        <path d="M478.54,71.85c4.85-3.28,5.26-4.11,5.26-7.28v-1.8h-4.95V61.64H485v3a15.26,15.26,0,0,1-.08,1.6h2.84V60.34h1.26V75.65H487.8V67.38h-3.06c-.54,1.77-2,3.06-5.49,5.46Zm13.83,4.61h-1.26V60h1.26Z"/>
        <path d="M507.58,69h-7.4V60.83h1.23v3h4.95v-3h1.22Zm-6.17-1.1h4.95V65h-4.95ZM504,75.14h9.22v1.12h-10.5V71H504Zm7.56-12.35V60h1.24V71.78h-1.24V67.45h-3V66.36h3V63.89h-3v-1.1Z"/>
        <path d="M526.23,72.91a90.26,90.26,0,0,1-10.66.41V72.21c1.82,0,3.31,0,4.61,0v-2c-2-.18-3.37-1.41-3.37-2.74V66.7c0-1.48,1.62-2.76,3.91-2.76s3.91,1.3,3.91,2.76v.68c0,1.28-1.28,2.47-3.17,2.72v2c1.76-.06,3.19-.17,4.66-.33Zm-4.88-11h4V63h-9.46V61.91h4.18v-2h1.26ZM518,66.79v.5c0,.88,1.08,1.78,2.7,1.78s2.7-.9,2.7-1.78v-.5c0-.88-1.08-1.77-2.7-1.77S518,65.91,518,66.79Zm10.62,0h2.61v1.13h-2.61v8.54h-1.28V60h1.28Z"/>
        <path d="M541.58,68h-3.4v3.69c1.94-.07,3.51-.16,5-.34l.11,1.1a99.87,99.87,0,0,1-11,.41V71.78c1.77,0,3.26,0,4.59,0V68h-3.45V61.42h8.08v1.15h-6.81v4.31h6.86Zm4.18,8.43h-1.28V60h1.28Z"/>
        <path d="M554,73V66.72h1.3V73h8.08v1.09H548.28V73Zm5.15-2.27a34.54,34.54,0,0,0,.65-6.61V62.67h-9.63V61.55h10.94v1.94a38,38,0,0,1-.63,7.44Z"/>
        <path d="M569.93,65V64a4.07,4.07,0,0,1,8,0v1a4.07,4.07,0,0,1-8,0Zm4.66,8.64a5.75,5.75,0,0,1-1.27,1.33c-.45.4-1.07.9-1.91,1.55l-.7-.9c.77-.57,1.38-1.06,1.83-1.46,1.35-1.17,1.44-1.6,1.44-2.77V69.92h1.24v1.5c0,1.09,0,1.44,1.19,2.57a14,14,0,0,0,1.12,1,14,14,0,0,0,1.12-1c1.15-1.13,1.18-1.48,1.18-2.57v-1.5h1.25v1.44c0,1.17.09,1.6,1.44,2.77.45.4,1.06.89,1.83,1.46l-.7.9c-.85-.65-1.46-1.15-1.91-1.55a6.18,6.18,0,0,1-1.28-1.33,15.06,15.06,0,0,1-2.93,2.88A15.33,15.33,0,0,1,574.59,73.61Zm-3.43-9.54v.79a2.82,2.82,0,0,0,5.58,0v-.79a2.82,2.82,0,0,0-5.58,0Zm11.59,4.81h-1.26V60h1.26Z"/>
        <path d="M600.66,67.69v1.1H585.54v-1.1ZM599,66.45c-1.26-.49-2.7-1.12-3.6-1.55-1.53-.72-2.16-1.17-2.28-1.51h0c-.13.36-.76.81-2.29,1.53-.9.43-2.32,1.06-3.58,1.54l-.52-1c1.62-.63,2.95-1.19,3.81-1.62,1.62-.8,2-1.26,2-2.51V60.16h1.28v1.15c0,1.25.3,1.71,1.92,2.51.87.43,2.22,1,3.82,1.62Zm-.54,3.69v6.3H587.73v-6.3H589v2h8.24v-2Zm-1.24,5.16v-2H589v2Z"/>
        <path d="M604.62,70.79H607a31.78,31.78,0,0,0,5.49-.45l.16,1.13a34.94,34.94,0,0,1-5.78.47h-3.51V61.35h1.28Zm10.91,5.67h-1.28V60h1.28Z"/>
        <path d="M619.21,61.49h7.5v1.16h-6.22v8.26h2.13a32.54,32.54,0,0,0,5.6-.45l.16,1.14a35.86,35.86,0,0,1-6.09.46h-3.08Zm11.85,4.61h2.74v1.14h-2.74v9.22h-1.28V60h1.28Z"/>
        <path d="M635.34,73.2h1.82V75h-1.82Z"/>
        <path d="M91.7,97.63c0,3-1.51,4.79-4.07,4.79s-4.07-1.78-4.07-4.79V95.92c0-3,1.52-4.77,4.07-4.77s4.07,1.79,4.07,4.79Zm-1.24-1.47c0-2.74-1.13-3.82-2.83-3.82s-2.82,1.08-2.82,3.82v1.26c0,2.74,1.13,3.83,2.82,3.83s2.83-1.09,2.83-3.83Zm5.78,10.3H95V90h1.28Z"/>
        <path d="M107.6,94.29h3.87V90h1.26v11.78h-1.26V95.4H107.6V99h-7.49V90.83h1.22v3h5v-3h1.23Zm-6.27,3.63h5V95h-5Zm2.59,7.22h9.22v1.12H102.65V101h1.27Z"/>
        <path d="M124.41,95.11V91.19h1.31V95a3.76,3.76,0,0,0,1.08,3.1,36.78,36.78,0,0,0,3.14,3.13l-.83.87c-1.14-1.08-2.15-2.07-2.87-2.85a7.89,7.89,0,0,1-1.15-1.4h0a8,8,0,0,1-1.28,1.67,39.33,39.33,0,0,1-2.88,2.83l-.84-.88a32.92,32.92,0,0,0,3-3A4.22,4.22,0,0,0,124.41,95.11Zm9.09,11.35h-1.28V90h1.28Z"/>
        <path d="M151.43,98.68v1.1H136.3v-1.1Zm-9.72-2.92c-.94.42-2.22.92-3.62,1.42l-.53-1c1.52-.54,2.87-1.06,3.75-1.45,1.44-.65,1.91-1.25,1.91-2.18v-.69h-4.93V90.79h11.16v1.08H144.5v.69c0,.93.43,1.53,1.89,2.18,1,.46,2.52,1,3.74,1.44l-.48,1c-1.34-.47-2.7-1-3.64-1.43a4.92,4.92,0,0,1-2.14-1.38h0A4.82,4.82,0,0,1,141.71,95.76Zm-1.89,9.38h9.7v1.12h-11v-4.9h1.28Z"/>
        <path d="M172.31,99.67v1.1h-4v5.67H167v-5.67h-4.5v5.67h-1.28v-5.67h-4v-1.1Zm-13-5.89c0-2.18,2.75-3.37,5.42-3.37s5.42,1.19,5.42,3.37v.83c0,2.18-2.76,3.37-5.42,3.37s-5.42-1.19-5.42-3.37Zm9.58.11c0-1.46-1.93-2.32-4.16-2.32s-4.16.86-4.16,2.32v.61c0,1.46,1.92,2.32,4.16,2.32s4.16-.86,4.16-2.32Z"/>
        <path d="M176.26,100.79h2.36a31.81,31.81,0,0,0,5.5-.45l.16,1.13a34.94,34.94,0,0,1-5.78.47H175V91.35h1.27Zm10.92,5.67H185.9V90h1.28Z"/>
        <path d="M202.85,90.52v2.33a23,23,0,0,1-.36,3.83h2.58v1.1H189.94v-1.1h11.27a17.16,17.16,0,0,0,.31-2.05l-9.6.18,0-1.14,9.7-.14c0-.22,0-.43,0-.63V91.64h-9.52V90.52Zm0,9.09v4h-9.38v1.86h9.86v1.08H192.19v-4h9.39V100.7H192.1V99.61Z"/>
        <path d="M219.16,91.3v4.88H209.8v2.66h9.74v1.1h-5V103h6.93v1.09H206.32V103h6.94v-3.1h-4.7V95.1h9.36V92.4H208.5V91.3Z"/>
        <path d="M237.83,98.52v1.09H222.7V98.52Zm-11.62,6.62h9.71v1.12h-11v-4.92h1.27Zm.08-10h9.4v1.12H225v-5.6h1.28Z"/>
        <path d="M244.07,97.53V96.12c0-3.08,1.13-4.79,3.51-4.79s3.51,1.71,3.51,4.79v.09h2.22V90.34h1.26v15.31h-1.26v-8.3h-2.22v.18c0,3.08-1.13,4.79-3.51,4.79S244.07,100.61,244.07,97.53Zm1.22-1.26v1.11c0,2.47.69,3.77,2.29,3.77s2.29-1.3,2.29-3.77V96.27c0-2.47-.69-3.77-2.29-3.77S245.29,93.8,245.29,96.27Zm12.45,10.19h-1.26V90h1.26Z"/>
        <path d="M267.13,99.24c-.68-.58-1.44-1.28-2-1.82a5.29,5.29,0,0,1-1.1-1.28h0a4,4,0,0,1-.86,1.21,28.78,28.78,0,0,1-2.56,2.41l-.81-.85a20.91,20.91,0,0,0,2.54-2.41,3.68,3.68,0,0,0,1-3V90.86h1.26v2.65a3.28,3.28,0,0,0,1.07,2.86,26,26,0,0,0,2.21,2Zm-2.45,5.9h9.54v1.12H263.4v-5.38h1.28Zm4.75-11.25V90.22h1.25v11.09h-1.25V95h-2.62V93.89Zm4.43,7.81h-1.24V90h1.24Z"/>
        <path d="M281.33,95A4.83,4.83,0,0,1,280,96.45c-.63.55-1.62,1.36-2.83,2.25l-.77-.92a30.83,30.83,0,0,0,2.9-2.27,3.27,3.27,0,0,0,1.33-2.88V90.4h1.29v2.17a2.75,2.75,0,0,0,1.3,2.69c.67.56,1.68,1.31,2.61,1.94l-.72.92c-.83-.59-1.62-1.19-2.14-1.6A6.26,6.26,0,0,1,281.35,95ZM290,99.18v4.2h-8.83v2.05h9.26v1.08h-10.5v-4.19h8.82v-2H279.8v-1.1Zm-1.25-7.42V90H290v8.21h-1.25V95.58h-3.6V94.5h3.6V92.85h-3.6V91.76Z"/>
        <path d="M305.9,97.62c0,3-1.51,4.77-4,4.77s-4.05-1.77-4.05-4.77v-1.7c0-3,1.51-4.75,4.05-4.75s4,1.78,4,4.77Zm-1.24-1.46c0-2.74-1.12-3.8-2.81-3.8S299,93.42,299,96.16V97.4c0,2.74,1.12,3.82,2.81,3.82s2.81-1.08,2.81-3.82Zm5.35,0h2.73v1.13H310v9.15h-1.28V90H310Z"/>
        <path d="M322.64,97.63c0,3-1.51,4.79-4.07,4.79s-4.07-1.78-4.07-4.79V95.92c0-3,1.52-4.77,4.07-4.77s4.07,1.79,4.07,4.79Zm-1.24-1.47c0-2.74-1.13-3.82-2.83-3.82s-2.82,1.08-2.82,3.82v1.26c0,2.74,1.13,3.83,2.82,3.83s2.83-1.09,2.83-3.83Zm5.78,10.3H325.9V90h1.28Z"/>
        <path d="M337,90.94V92h-5v2.24h4.18v1.1H332v2.25a46.53,46.53,0,0,0,5.77-.27l.14,1.08a55.7,55.7,0,0,1-7.15.28V90.94Zm-3.22,9.58h10.21v5.92H333.73ZM335,105.3h7.76v-3.65H335Zm4.65-11.18v-3.9h1.24v9.29H339.6V95.24h-2.4V94.12Zm4.34,5.42H342.7V90h1.24Z"/>
        <path d="M347.12,95.42V94.34a4.08,4.08,0,0,1,8.1,0v1.08a4.08,4.08,0,0,1-8.1,0Zm1.22-1v.86a2.84,2.84,0,0,0,5.66,0v-.86a2.84,2.84,0,0,0-5.66,0Zm2.83,10.69h9.2v1.12H349.89v-5.38h1.28Zm8.79-3.36H358.7V90H360Z"/>
        <path d="M368.16,91.49h7.49v1.16h-6.21v8.26h2.12a32.38,32.38,0,0,0,5.6-.45l.17,1.14a35.86,35.86,0,0,1-6.09.46h-3.08ZM380,96.1h2.74v1.14H380v9.22h-1.28V90H380Z"/>
        <path d="M398.75,98.48v1.08H392V103h-1.26v-3.4h-7.13V98.48Zm-11.6,6.66h9.71v1.12h-11V101.4h1.28ZM386,94v-.69c0-1.8,2.28-3,5.16-3s5.17,1.15,5.17,3V94c0,1.8-2.28,3-5.17,3S386,95.82,386,94Zm1.22-.6v.51c0,1.15,1.87,2,3.94,2s3.95-.81,3.95-2v-.51c0-1.15-1.87-2-3.95-2S387.24,92.27,387.24,93.42Z"/>
        <path d="M415.13,103v1.09H400V103Zm-13-8.09c0-2.38,2.45-3.91,5.43-3.91S413,92.57,413,95v.88c0,2.38-2.46,3.91-5.44,3.91s-5.43-1.53-5.43-3.91Zm1.26.06v.77c0,1.64,1.82,2.79,4.17,2.79s4.18-1.15,4.18-2.79V95c0-1.64-1.83-2.8-4.18-2.8S403.39,93.37,403.39,95Z"/>
        <path d="M429.22,91.3v4.88h-9.36v2.66h9.74v1.1h-5V103h6.94v1.09H416.38V103h6.93v-3.1h-4.69V95.1H428V92.4h-9.42V91.3Z"/>
        <path d="M442.27,101.81a28,28,0,0,1-3.77.24h-.75V91.51h4.09v1.16H439v8.22a23.58,23.58,0,0,0,3.15-.19Zm5.69,0a32.3,32.3,0,0,1-4.22.26h-.9V91.51h4.36v1.16h-3.1v8.22a28.18,28.18,0,0,0,3.73-.23Zm2.28-5.7h2.47v1.13h-2.47v9.24H449V90h1.27Z"/>
        <path d="M468.77,97.94V99H453.64v-1.1Zm-9.08,6.68a43.93,43.93,0,0,1-4.23,1.87l-.52-1a41.24,41.24,0,0,0,3.92-1.67c1.32-.67,1.71-1,1.71-2.54v-1h1.26v1c0,1.53.4,1.87,1.71,2.54a42.65,42.65,0,0,0,3.93,1.67l-.52,1a43.93,43.93,0,0,1-4.23-1.87,3.85,3.85,0,0,1-1.52-1.15A3.73,3.73,0,0,1,459.69,104.62Zm1.08-8.79a31.68,31.68,0,0,1-4.3.26h-1.26V90.72h5.2V91.8h-4V95h.42a27.08,27.08,0,0,0,3.78-.24Zm6.39-.82v1.08h-5.67V90.72H467V91.8h-4.25V95Z"/>
        <path d="M474.25,92.59v-2.5h1.28v2.5h4.11v1.12h-9.55V92.59ZM471,99.27v-1a3.92,3.92,0,0,1,7.78,0v1a3.92,3.92,0,0,1-7.78,0Zm1.21-.86v.76a2.7,2.7,0,0,0,5.37,0v-.76a2.7,2.7,0,0,0-5.37,0Zm10.64-1.68h2.74v1.14h-2.74v8.59h-1.28V90h1.28Z"/>
        <path d="M492.15,103V96.72h1.29V103h8.09v1.09H486.4V103Zm5.14-2.27a33.75,33.75,0,0,0,.65-6.61V92.67h-9.63V91.55h10.95v1.94a38,38,0,0,1-.63,7.44Z"/>
        <path d="M517.63,99c-3,.31-6.51.31-9.92.31V98.25h1.75V92.12h-1.64V91h9v1.08H515v6c.86-.06,1.71-.11,2.54-.2Zm-3.87-.83V92.12h-3.08v6.13C511.75,98.25,512.77,98.23,513.76,98.19Zm-1.58,7h9.22v1.12H510.9V101h1.28Zm8.8-3.22h-1.24v-5h-2.86V95.8h2.86V94.09h-2.86V93h2.86V90H521Z"/>
        <path d="M524.18,95.4v-1a4.06,4.06,0,0,1,8.07,0v1a4.06,4.06,0,0,1-8.07,0Zm1.23-.93v.82a2.82,2.82,0,0,0,5.62,0v-.82a2.82,2.82,0,0,0-5.62,0ZM528,105.14h9.05v1.12H526.76v-5.4H528ZM536.59,95h2.52V96.1h-2.52v5.68h-1.26V90h1.26Z"/>
        <path d="M545.59,91.94h4.12V93h-9.47v-1.1h4.09v-2.1h1.26Zm3.15,5.57c0,1.49-1.44,2.9-3.78,2.9s-3.78-1.41-3.78-2.9v-.69c0-1.49,1.44-2.89,3.78-2.89s3.78,1.4,3.78,2.89Zm-1.21-.06v-.57c0-.88-1-1.87-2.57-1.87s-2.58,1-2.58,1.87v.57c0,.89,1,1.88,2.58,1.88S547.53,98.34,547.53,97.45Zm-3.08,7.69h9v1.12H543.17V101.7h1.28ZM553,95h2.52v1.12H553V102h-1.26V90H553Z"/>
        <path d="M27.31,127.62c0,3-1.51,4.77-4,4.77s-4.05-1.77-4.05-4.77v-1.7c0-3,1.51-4.75,4.05-4.75s4,1.78,4,4.77Zm-1.24-1.46c0-2.74-1.12-3.8-2.81-3.8s-2.81,1.06-2.81,3.8v1.24c0,2.74,1.11,3.82,2.81,3.82s2.81-1.08,2.81-3.82Zm5.34,0h2.74v1.13H31.41v9.15H30.13V120h1.28Z"/>
        <path d="M50.13,127.69v1.08H43.2v1.8H41.94v-1.8H35v-1.08Zm-9.07,7a42.62,42.62,0,0,1-4.27,1.82l-.47-1a38.21,38.21,0,0,0,3.93-1.6c1.31-.65,1.69-1.08,1.69-2.5v-.22H43.2v.22c0,1.42.38,1.85,1.69,2.5a39.15,39.15,0,0,0,3.93,1.6l-.47,1a42.62,42.62,0,0,1-4.27-1.82,3.71,3.71,0,0,1-1.51-1.13A3.58,3.58,0,0,1,41.06,134.67Zm-3.66-11V123c0-1.85,2.42-2.79,5.17-2.79s5.17,1,5.17,2.79v.62c0,1.83-2.41,2.79-5.17,2.79S37.4,125.49,37.4,123.66Zm1.23-.53v.44c0,1.11,2,1.8,3.94,1.8s4-.69,4-1.8v-.44c0-1.11-2-1.8-4-1.8S38.63,122,38.63,123.13Z"/>
        <path d="M64.52,128.86H59.58V133h6.93v1.09H51.39V133h6.93v-4.18H53.57v-7.42H64.34v1.1H54.85v5.22h9.67Z"/>
        <path d="M81.42,136.46H80.16v-9.4H76.47v.56c0,3-1.52,4.77-4,4.77s-4.06-1.77-4.06-4.77v-1.7c0-3,1.52-4.75,4.06-4.75s4,1.77,4,4.74h3.69V120h1.26Zm-6.2-10.3c0-2.74-1.11-3.8-2.8-3.8s-2.81,1.06-2.81,3.8v1.24c0,2.74,1.11,3.82,2.81,3.82s2.8-1.08,2.8-3.82Z"/>
        <path d="M90.58,131.67h5v-2H88.65v-1.08h15.12v1.08H96.84v2h4.76v4.93h-1.27v-3.83H90.58Zm.28-11.09h10.57v3.76H92.12V126h9.67v1.06H90.92v-3.77h9.31v-1.65H90.86Z"/>
        <path d="M120.15,127.36v1.08H105v-1.08Zm-2.25,2.53v3.83h-9.36v1.75h9.85v1.06H107.3v-3.85h9.36V131h-9.45v-1.06Zm-.16-6.47c0,1.69-2.25,2.72-5.15,2.72s-5.15-1-5.15-2.72v-.54c0-1.71,2.25-2.72,5.15-2.72s5.15,1,5.15,2.72Zm-9.06,0c0,1,1.75,1.71,3.91,1.71s3.91-.74,3.91-1.71v-.43c0-1-1.75-1.72-3.91-1.72s-3.91.74-3.91,1.72Z"/>
        <path d="M126.4,121.62h7.18v1.12h-2.9v2.45a4.43,4.43,0,0,0,1.1,3.42,36.57,36.57,0,0,0,2.47,2.7l-.83.81c-.8-.79-1.75-1.89-2.36-2.58a6.21,6.21,0,0,1-1-1.37h0a5.2,5.2,0,0,1-.9,1.35c-.67.78-1.5,1.7-2.63,2.81l-.85-.84a28.1,28.1,0,0,0,2.69-2.87,4.58,4.58,0,0,0,1-3.43v-2.45h-3Zm9.21,3.94v-5.22h1.27v15.31h-1.27v-8.93H132.7v-1.16Zm4.47,10.9h-1.26V120h1.26Z"/>
        <path d="M142.81,125.4v-1a4.06,4.06,0,0,1,8.07,0v1a4.06,4.06,0,0,1-8.07,0Zm1.23-.93v.82a2.81,2.81,0,0,0,5.61,0v-.82a2.81,2.81,0,0,0-5.61,0Zm2.62,10.67h9.06v1.12H145.39v-5.4h1.27ZM155.22,125h2.52v1.11h-2.52v5.68H154V120h1.26Z"/>
        <path d="M164.21,121.84h4.13v1.1h-9.47v-1.1H163v-2.07h1.26Zm-4.39,5v-.54c0-1.26,1.23-2.56,3.76-2.56s3.77,1.3,3.77,2.56v.54c0,1.26-1.23,2.55-3.77,2.55S159.82,128.07,159.82,126.81Zm1.23-.47v.39c0,.72.81,1.57,2.53,1.57s2.54-.85,2.54-1.57v-.39c0-.72-.81-1.57-2.54-1.57S161.05,125.62,161.05,126.34Zm10.57,3.89v6.23h-9.87v-6.23H163v1.92h7.38v-1.92Zm-1.25,5.09v-2H163v2Zm1.25-11.23h2.52v1.11h-2.52v4h-1.27V120h1.27Z"/>
        <path d="M177.75,130.79h2.36a31.62,31.62,0,0,0,5.49-.45l.16,1.13a34.86,34.86,0,0,1-5.78.47h-3.51V121.35h1.28Zm10.91,5.67h-1.28V120h1.28Z"/>
        <path d="M192.35,121.49h7.49v1.16h-6.22v8.26h2.13a32.46,32.46,0,0,0,5.6-.45l.16,1.14a35.82,35.82,0,0,1-6.08.46h-3.08Zm11.84,4.61h2.74v1.14h-2.74v9.22h-1.27V120h1.27Z"/>
        <path d="M208.47,133.2h1.82V135h-1.82Z"/>
        <path d="M230.37,136.48h-1.25v-6.92h-4a3.66,3.66,0,0,1-3.78,2.83c-2.53,0-4.05-1.77-4.05-4.77v-1.7c0-3,1.52-4.75,4.05-4.75a3.71,3.71,0,0,1,3.78,2.81h4v-4h1.25Zm-6.2-10.32c0-2.74-1.11-3.8-2.81-3.8s-2.81,1.06-2.81,3.8v1.24c0,2.74,1.12,3.82,2.81,3.82s2.81-1.08,2.81-3.82Zm1.25,1.46c0,.27,0,.54,0,.79h3.74v-3.28h-3.74c0,.27,0,.54,0,.81Z"/>
        <path d="M248.22,129.67v1.1h-4v5.67h-1.28v-5.67h-4.5v5.67h-1.28v-5.67h-4v-1.1Zm-13-5.89c0-2.18,2.76-3.37,5.42-3.37s5.42,1.19,5.42,3.37v.83c0,2.18-2.75,3.37-5.42,3.37s-5.42-1.19-5.42-3.37Zm9.58.11c0-1.46-1.93-2.32-4.16-2.32s-4.16.86-4.16,2.32v.61c0,1.46,1.93,2.32,4.16,2.32s4.16-.86,4.16-2.32Z"/>
        <path d="M254.75,125v-1a4.07,4.07,0,0,1,8,0v1a4.07,4.07,0,0,1-8,0Zm4.67,8.64a6.18,6.18,0,0,1-1.28,1.33c-.45.4-1.06.9-1.91,1.55l-.7-.9c.77-.57,1.38-1.06,1.83-1.46,1.35-1.17,1.44-1.6,1.44-2.77v-1.44h1.25v1.5c0,1.09,0,1.44,1.18,2.57a14,14,0,0,0,1.12,1,14,14,0,0,0,1.12-1c1.15-1.13,1.19-1.48,1.19-2.57v-1.5h1.24v1.44c0,1.17.09,1.6,1.44,2.77.45.4,1.06.89,1.83,1.46l-.7.9c-.84-.65-1.46-1.15-1.91-1.55a5.75,5.75,0,0,1-1.27-1.33,15.33,15.33,0,0,1-2.94,2.88A15.06,15.06,0,0,1,259.42,133.61ZM256,124.07v.79a2.82,2.82,0,0,0,5.58,0v-.79a2.82,2.82,0,0,0-5.58,0Zm11.59,4.81h-1.26V120h1.26Z"/>
        <path d="M285.48,128.52v1.09H270.36v-1.09Zm-11.61,6.62h9.7v1.12h-11v-4.92h1.28Zm.07-10h9.4v1.12H272.66v-5.6h1.28Z"/>
        <path d="M296.37,124.7a4.83,4.83,0,0,1-1.33,1.48c-.63.55-1.64,1.38-2.87,2.26l-.75-.91a30.63,30.63,0,0,0,2.91-2.29,3.25,3.25,0,0,0,1.34-2.88v-2H297v1.89a2.75,2.75,0,0,0,1.3,2.69,31.07,31.07,0,0,0,2.65,2l-.72.92c-.85-.6-1.66-1.21-2.18-1.62a6.26,6.26,0,0,1-1.62-1.55Zm8.39,4.41v4.23h-8.82v2.09h9.25v1.08H294.7v-4.23h8.82v-2.07h-8.91v-1.1Zm0-1H303.5V120h1.26Z"/>
        <path d="M322.74,130v1.1h-6.91v5.35h-1.28v-5.35h-6.93V130Zm-2.28-9.13v4.18h-9.37v2h9.74v1.09h-11V124h9.36v-2H309.8v-1.1Z"/>
        <path d="M324.16,125.19v-1a3.63,3.63,0,0,1,7.24-.12h2.12v-3.87h1.25v8.71h-1.25v-3.71H331.4a3.63,3.63,0,0,1-7.24,0Zm1.24-.85v.72a2.38,2.38,0,1,0,4.76,0v-.72a2.38,2.38,0,1,0-4.76,0Zm6.34,5.45H333v1.41c0,1.49.49,2,1.89,2.75.94.49,2.31,1.08,3.39,1.52l-.53,1c-1.17-.48-2.45-1.1-3.25-1.51a4.84,4.84,0,0,1-2.13-1.57,4.85,4.85,0,0,1-2.12,1.57c-.81.41-2.09,1-3.26,1.51l-.54-1c1.08-.44,2.46-1,3.4-1.52,1.33-.68,1.89-1.26,1.89-2.75Zm6.18.71h-1.25V120h1.25Z"/>
        <path d="M351.07,132.23a92.13,92.13,0,0,1-10.64.41v-1.12h3.48v-5.24h1.28v5.22c2.32-.06,4-.16,5.77-.36Zm-1.6-10.65v2A29.23,29.23,0,0,1,349,129l-1.28-.16a25.7,25.7,0,0,0,.43-5v-1.12h-6.93v-1.14Zm4,4.69h2.61v1.13H353.5v9.06h-1.27V120h1.27Z"/>
        <path d="M376.38,129.67v1.1h-4v5.67h-1.28v-5.67h-4.5v5.67h-1.28v-5.67h-4v-1.1Zm-13-5.89c0-2.18,2.76-3.37,5.42-3.37s5.42,1.19,5.42,3.37v.83c0,2.18-2.76,3.37-5.42,3.37s-5.42-1.19-5.42-3.37Zm9.58.11c0-1.46-1.93-2.32-4.16-2.32s-4.16.86-4.16,2.32v.61c0,1.46,1.93,2.32,4.16,2.32S373,126,373,124.5Z"/>
        <path d="M380.34,130.79h2.36a31.62,31.62,0,0,0,5.49-.45l.16,1.13a34.94,34.94,0,0,1-5.78.47h-3.51V121.35h1.28Zm10.91,5.67H390V120h1.28Z"/>
        <path d="M409.14,133v1.09H394V133Zm-3.53-6.77c0-.49,0-1,0-1.5v-2.16H396v-1.12H407v2.62a37.07,37.07,0,0,1-.65,7.43L405,131.4c.25-1.39.45-2.69.56-4.05l-9.78.18,0-1.14Z"/>
        <path d="M415.94,121.94h4.13V123H410.6v-1.1h4.08v-2.1h1.26Zm3.15,5.57c0,1.49-1.44,2.9-3.78,2.9s-3.78-1.41-3.78-2.9v-.69c0-1.49,1.44-2.89,3.78-2.89s3.78,1.4,3.78,2.89Zm-1.2-.06v-.57c0-.88-1-1.87-2.58-1.87s-2.57,1-2.57,1.87v.57c0,.89,1,1.88,2.57,1.88S417.89,128.34,417.89,127.45Zm-3.08,7.69h9v1.12H413.53V131.7h1.28ZM423.34,125h2.52v1.12h-2.52V132h-1.26V120h1.26Z"/>
        <path d="M432.47,121.48h7.81v1.15h-6.54V131h2.43a32.38,32.38,0,0,0,5.6-.45l.17,1.13a35.85,35.85,0,0,1-6.09.47h-3.38Zm12.38,15h-1.28V120h1.28Z"/>
        <path d="M454.68,121.44v1.13h-5V126h4v1.12h-4V131H451a29.37,29.37,0,0,0,4.7-.3l.14,1.11a32.22,32.22,0,0,1-5.1.33h-2.32V121.44Zm2.63,4.5v-5.6h1.26v15.31h-1.26v-8.56h-2.52v-1.15Zm4.46,10.52h-1.26V120h1.26Z"/>
        <path d="M464.79,124.41v-.79c0-1.75,1.66-3.28,4-3.28s4,1.53,4,3.28v.79c0,1.75-1.65,3.28-4,3.28S464.79,126.16,464.79,124.41Zm1.23-.68v.57c0,1.23,1.15,2.25,2.79,2.25s2.79-1,2.79-2.25v-.57a2.85,2.85,0,0,0-5.58,0Zm11.59,5.34v4.25h-8.82v2.11H478v1.08H467.55v-4.25h8.82v-2.09h-8.91v-1.1Zm0-1h-1.26V120h1.26Z"/>
        <path d="M489.46,127.63c0,3-1.52,4.79-4.07,4.79s-4.07-1.78-4.07-4.79v-1.71c0-3,1.51-4.77,4.07-4.77s4.07,1.79,4.07,4.79Zm-1.25-1.47c0-2.74-1.13-3.82-2.82-3.82s-2.83,1.08-2.83,3.82v1.26c0,2.74,1.13,3.83,2.83,3.83s2.82-1.09,2.82-3.83Zm5.78,10.3h-1.28V120H494Z"/>
        <path d="M501.78,131.65c5.53-3.17,6.12-4.21,6.12-6.9v-2H502v-1.15h7.19v3.2c0,3.28-.85,4.48-6.7,7.91ZM514,126.28h2.74v1.14H514v9h-1.28V120H514Z"/>
        <path d="M526.5,121.49v10.63h-7.62V121.49Zm-1.26,1.16h-5.1V131h5.1Zm6,13.81H530V120h1.28Z"/>
        <path d="M545.27,129.67a89.55,89.55,0,0,1-10.78.43V129c1.75,0,3.2,0,4.45,0v-2.49h-3.26v-5.67h7.86v1.12h-6.6v3.44h6.66v1.11h-3.4v2.47c2.16-.07,3.58-.18,5-.34Zm-6.82,5.47h9.65v1.12H537.17v-4.59h1.28Zm9.24-2.82h-1.26V120h1.26Z"/>
        <path d="M556.12,121.48h7.82v1.15H557.4V131h2.43a32.38,32.38,0,0,0,5.6-.45l.17,1.13a35.85,35.85,0,0,1-6.09.47h-3.39Zm12.39,15h-1.28V120h1.28Z"/>
        <path d="M580.59,122.65h-3.73v2.57a3.68,3.68,0,0,0,1.06,3,37.63,37.63,0,0,0,3.1,3.07l-.83.84c-1.24-1.15-2.1-2-2.82-2.81a7.28,7.28,0,0,1-1.12-1.35h0a7.52,7.52,0,0,1-1.31,1.7c-.49.5-1.7,1.78-2.78,2.71l-.84-.84a36.49,36.49,0,0,0,3-2.94,4.1,4.1,0,0,0,1.29-3.33v-2.66H571.8v-1.12h8.79Zm3.49,3.63h2.74v1.14h-2.74v9H582.8V120h1.28Z"/>
        <path d="M588.45,125.42v-1.08a4.08,4.08,0,0,1,8.1,0v1.08a4.08,4.08,0,0,1-8.1,0Zm1.23-1v.86a2.84,2.84,0,0,0,5.65,0v-.86a2.83,2.83,0,0,0-5.65,0Zm2.82,10.69h9.2v1.12H591.22v-5.38h1.28Zm8.79-3.36H600V120h1.26Z"/>
        <path d="M619.2,127.36v1.08H604.08v-1.08ZM617,129.89v3.83h-9.36v1.75h9.85v1.06h-11.1v-3.85h9.37V131h-9.46v-1.06Zm-.16-6.47c0,1.69-2.25,2.72-5.15,2.72s-5.15-1-5.15-2.72v-.54c0-1.71,2.25-2.72,5.15-2.72s5.15,1,5.15,2.72Zm-9.06,0c0,1,1.75,1.71,3.91,1.71s3.9-.74,3.9-1.71v-.43c0-1-1.74-1.72-3.9-1.72s-3.91.74-3.91,1.72Z"/>
        <path d="M114.21,163v-3.71h-5.35v-1.07h2.54V152.5H109v-1.06h11.63v1.06h-2.38v5.76h2.54v1.07h-5.35V163h6.93v1.09H107.28V163Zm-1.55-4.78H117V152.5h-4.36Z"/>
        <path d="M124.42,155.42v-1.08a4.08,4.08,0,0,1,8.1,0v1.08a4.08,4.08,0,0,1-8.1,0Zm1.22-1v.86a2.84,2.84,0,0,0,5.65,0v-.86a2.83,2.83,0,0,0-5.65,0Zm2.83,10.69h9.2v1.12H127.19v-5.38h1.28Zm8.78-3.36H136V150h1.26Z"/>
        <path d="M155.16,163v1.09H140V163Zm-2-3.15h-10.9v-8.54H153v1.08h-9.5v2.65h9.41v1.08H143.5v2.64h9.65Z"/>
        <path d="M169.26,151.3v4.88h-9.37v2.66h9.74v1.1h-5V163h6.93v1.09H156.42V163h6.93v-3.1h-4.7V155.1H168v-2.7H158.6v-1.1Z"/>
        <path d="M178.43,151.49h7.49v1.16h-6.21v8.28h2.4a32.54,32.54,0,0,0,5.6-.45l.16,1.13a34.86,34.86,0,0,1-6.09.47h-3.35Zm12.53,15h-1.27V157H185v-1.15h4.69V150H191Z"/>
        <path d="M195.61,161.38h5v-2.23h-6.93v-1.08H208.8v1.08h-6.93v2.23h4.75v5.2h-1.26v-4.1h-9.75Zm.46-7.56v-.65c0-1.87,2.47-2.86,5.17-2.86s5.17,1,5.17,2.86v.65c0,1.85-2.47,2.86-5.17,2.86S196.07,155.67,196.07,153.82Zm1.23-.54v.43c0,1.15,2,1.89,3.94,1.89s3.94-.74,3.94-1.89v-.43c0-1.16-2-1.89-3.94-1.89S197.3,152.12,197.3,153.28Z"/>
        <path d="M229.68,163v1.09H214.56V163Zm-7.58-7.1a6.31,6.31,0,0,1-2.1,1.84c-1.08.72-2.56,1.6-3.86,2.3l-.68-1a38.89,38.89,0,0,0,3.8-2.21c1.78-1.21,2.2-1.76,2.2-3.71v-2h1.31v2c0,1.95.4,2.5,2.18,3.71a38.93,38.93,0,0,0,3.76,2.2l-.67,1c-1.27-.71-2.73-1.57-3.81-2.29a6.43,6.43,0,0,1-2.11-1.82Z"/>
        <path d="M239.38,151.33v1.14h-6.23v3.67H239v1.13h-5.87v3.82h2.31a36.59,36.59,0,0,0,5.45-.38l.15,1.14a39.55,39.55,0,0,1-5.93.39h-3.25V151.33Zm4.34,4.85h2.74v1.13h-2.74v9.15h-1.28V150h1.28Z"/>
        <path d="M248.07,154.41v-.79c0-1.75,1.66-3.28,4-3.28s4,1.53,4,3.28v.79c0,1.75-1.65,3.28-4,3.28S248.07,156.16,248.07,154.41Zm1.23-.68v.57c0,1.23,1.15,2.25,2.79,2.25s2.79-1,2.79-2.25v-.57a2.85,2.85,0,0,0-5.58,0Zm11.59,5.34v4.25h-8.82v2.11h9.26v1.08h-10.5v-4.25h8.82v-2.09h-8.91v-1.1Zm0-1h-1.26V150h1.26Z"/>
        <path d="M266.22,161.24h2.47a35.73,35.73,0,0,0,5.45-.36l.15,1.09a37.72,37.72,0,0,1-5.93.4H265v-6.3h6v-3.62h-6v-1.12h7.22v5.85h-6Zm11,5.22H276V150h1.27Z"/>
        <path d="M284.56,155.11v-3.92h1.32V155a3.73,3.73,0,0,0,1.08,3.1,37.94,37.94,0,0,0,3.13,3.13l-.83.87c-1.13-1.08-2.14-2.07-2.86-2.85a7.89,7.89,0,0,1-1.15-1.4h0a8.76,8.76,0,0,1-1.28,1.67c-.63.69-1.82,1.89-2.88,2.83l-.85-.88a34.46,34.46,0,0,0,3-3A4.24,4.24,0,0,0,284.56,155.11Zm9.09,11.35h-1.27V150h1.27Z"/>
        <path d="M302,151.94h4.13V153h-9.47v-1.1h4.08v-2.1H302Zm3.15,5.57c0,1.49-1.44,2.9-3.78,2.9s-3.78-1.41-3.78-2.9v-.69c0-1.49,1.44-2.89,3.78-2.89s3.78,1.4,3.78,2.89Zm-1.2-.06v-.57c0-.88-1-1.87-2.58-1.87s-2.57,1-2.57,1.87v.57c0,.89,1,1.88,2.57,1.88S304,158.34,304,157.45Zm-3.08,7.69h9v1.12H299.59V161.7h1.28ZM309.4,155h2.52v1.12H309.4V162h-1.26V150h1.26Z"/>
        <path d="M326,157.62c0,3-1.52,4.77-4.06,4.77s-4-1.77-4-4.77v-1.7c0-3,1.52-4.75,4-4.75S326,153,326,155.94Zm-1.25-1.46c0-2.74-1.11-3.8-2.81-3.8s-2.8,1.06-2.8,3.8v1.24c0,2.74,1.11,3.82,2.8,3.82s2.81-1.08,2.81-3.82Zm5.35,0h2.74v1.13h-2.74v9.15h-1.28V150h1.28Z"/>
        <path d="M348.84,157.69v1.08h-6.93v1.8h-1.26v-1.8h-6.93v-1.08Zm-9.07,7a42.62,42.62,0,0,1-4.27,1.82l-.47-1a39.15,39.15,0,0,0,3.93-1.6c1.31-.65,1.69-1.08,1.69-2.5v-.22h1.26v.22c0,1.42.38,1.85,1.69,2.5a39.15,39.15,0,0,0,3.93,1.6l-.47,1a42.62,42.62,0,0,1-4.27-1.82,3.58,3.58,0,0,1-1.51-1.13A3.58,3.58,0,0,1,339.77,164.67Zm-3.66-11V153c0-1.85,2.42-2.79,5.17-2.79s5.17,1,5.17,2.79v.62c0,1.83-2.41,2.79-5.17,2.79S336.11,155.49,336.11,153.66Zm1.23-.53v.44c0,1.11,2,1.8,3.94,1.8s3.94-.69,3.94-1.8v-.44c0-1.11-2-1.8-3.94-1.8S337.34,152,337.34,153.13Z"/>
        <path d="M363.22,158.86h-4.93V163h6.93v1.09H350.1V163H357v-4.18h-4.75v-7.42H363v1.1h-9.49v5.22h9.67Z"/>
        <path d="M380.12,166.46h-1.25v-9.4h-3.7v.56c0,3-1.51,4.77-4.05,4.77s-4.05-1.77-4.05-4.77v-1.7c0-3,1.51-4.75,4.05-4.75s4,1.77,4.05,4.74h3.7V150h1.25Zm-6.19-10.3c0-2.74-1.11-3.8-2.81-3.8s-2.81,1.06-2.81,3.8v1.24c0,2.74,1.12,3.82,2.81,3.82s2.81-1.08,2.81-3.82Z"/>
        <path d="M389.28,161.67h5v-2h-6.93v-1.08h15.12v1.08h-6.93v2h4.75v4.93H399v-3.83h-9.76Zm.29-11.09h10.57v3.76h-9.31V156h9.67v1.06H389.63v-3.77h9.3v-1.65h-9.36Z"/>
        <path d="M418.86,157.36v1.08H403.74v-1.08Zm-2.25,2.53v3.83h-9.36v1.75h9.85v1.06H406v-3.85h9.36V161h-9.45v-1.06Zm-.16-6.47c0,1.69-2.25,2.72-5.15,2.72s-5.15-1-5.15-2.72v-.54c0-1.71,2.25-2.72,5.15-2.72s5.15,1,5.15,2.72Zm-9.06,0c0,1,1.75,1.71,3.91,1.71s3.91-.74,3.91-1.71v-.43c0-1-1.75-1.72-3.91-1.72s-3.91.74-3.91,1.72Z"/>
        <path d="M435.2,159.69a89.86,89.86,0,0,1-10.6.41V159H429v-2c-2-.22-3.39-1.39-3.39-2.9v-.76c0-1.65,1.66-2.91,4-2.91s4,1.26,4,2.91v.76c0,1.51-1.37,2.68-3.38,2.9v2c2-.05,3.46-.16,4.81-.31Zm-8.37-6.27V154c0,1,1.19,1.95,2.83,1.95s2.83-.92,2.83-1.95v-.54c0-1-1.19-1.94-2.83-1.94S426.83,152.4,426.83,153.42Zm1.87,11.72h9.37v1.12H427.43v-4.52h1.27Zm8.92-9.74h2.46v1.14h-2.46v5.78h-1.26V150h1.26Z"/>
        <path d="M446,155.47c0,.31-.61.87-1.4,1.62-.63.6-1.7,1.5-2.69,2.29l-.79-.92a28.29,28.29,0,0,0,2.92-2.46,3.28,3.28,0,0,0,1.26-3v-2.3h1.29V153a2.93,2.93,0,0,0,1.32,2.84c.88.78,1.84,1.53,2.63,2.11l-.76.88c-.95-.72-1.75-1.37-2.36-1.89a5,5,0,0,1-1.4-1.48Zm8.68,7.66v.7c0,1.89-2.29,3.06-5,3.06s-5-1.17-5-3.06v-.7c0-1.95,2.29-3,5-3S454.7,161.24,454.7,163.13Zm-1.23.66v-.61c0-1.28-1.83-2-3.76-2s-3.76.74-3.76,2v.61c0,1.28,1.84,2,3.76,2S453.47,165.07,453.47,163.79Zm-.12-10.08V150h1.26v9.71h-1.26v-4.88h-3.71v-1.12Z"/>
        <path d="M457.43,152.88H461v-2.41h1.26v2.41h3.33V154h-8.16Zm.63,6.16v-.76a3.61,3.61,0,0,1,7.17,0V159a3.61,3.61,0,0,1-7.17,0Zm1.21-.67V159a2.38,2.38,0,0,0,4.75,0v-.58a2.38,2.38,0,0,0-4.75,0Zm8.84-2.07h2.3V150h1.26v16.46h-1.26v-9h-2.3v8.21h-1.26V150.34h1.26Z"/>
        <path d="M491.15,151.26v8.21h-4.7V163h6.93v1.09H478.26V163h6.93v-3.57h-4.7v-8.21h1.24v3h8.18v-3Zm-1.24,7.15v-3.1h-8.18v3.1Z"/>
        <path d="M498.08,151.31h1.27V155a4.44,4.44,0,0,0,1.12,3.47,30.49,30.49,0,0,0,2.5,2.74l-.84.83c-.9-.92-1.79-1.91-2.4-2.61a6.5,6.5,0,0,1-1-1.39h0a5.26,5.26,0,0,1-.91,1.37c-.67.79-1.5,1.69-2.65,2.82l-.87-.84a28.66,28.66,0,0,0,2.72-2.9,4.7,4.7,0,0,0,1.07-3.49Zm6.24,4.2v-5.17h1.26v15.31h-1.26v-9h-3v-1.15Zm4.49,11h-1.26V150h1.26Z"/>
        <path d="M513.16,154.86c0-2.34,2.47-3.87,5.42-3.87s5.42,1.53,5.42,3.87v.88a3.47,3.47,0,0,1-1.86,3V163h4v1.09H511V163h4v-4.33a3.41,3.41,0,0,1-1.85-3Zm1.26.06v.77c0,1.62,1.82,2.75,4.16,2.75s4.16-1.13,4.16-2.75v-.77c0-1.63-1.84-2.76-4.16-2.76S514.42,153.29,514.42,154.92Zm1.85,4.35V163h4.61v-3.77a7.15,7.15,0,0,1-2.3.34A7.77,7.77,0,0,1,516.27,159.27Z"/>
        <path d="M528.06,163.2h1.82V165h-1.82Z"/>
      </g>
    </g>
  </g>
</svg>
