<svg xmlns="http://www.w3.org/2000/svg" viewBox="0 0 106.72 16.31">
  <g id="레이어_2" data-name="레이어 2">
    <g id="assets">
      <g>
        <path d="M4.27,2.74V.07H5V2.74H9.3v.72H0V2.74ZM1,9.15V8.21A3.43,3.43,0,0,1,4.64,4.9,3.43,3.43,0,0,1,8.33,8.21v.94a3.43,3.43,0,0,1-3.69,3.31A3.43,3.43,0,0,1,1,9.15Zm.74-.92v.9a2.74,2.74,0,0,0,2.95,2.61A2.73,2.73,0,0,0,7.58,9.13v-.9A2.73,2.73,0,0,0,4.64,5.62,2.74,2.74,0,0,0,1.69,8.23ZM15.17,7.6H12.31v8.71h-.76V0h.76V6.88h2.86Z"/>
        <path d="M15.7,7.47V5.91c0-2.79,1.27-4.72,3.86-4.72s3.86,1.93,3.86,4.72V7.47c0,2.79-1.26,4.72-3.86,4.72S15.7,10.26,15.7,7.47Zm.76-1.35V7.26c0,2.57,1,4.21,3.1,4.21s3.11-1.64,3.11-4.21V6.12c0-2.57-1-4.21-3.11-4.21S16.46,3.55,16.46,6.12ZM27.11,16.31V0h.76V16.31Z"/>
        <path d="M44.28,13.2v.68H29.56V13.2ZM31.84,9.27v-8h.72V4.38h8.72V1.3H42v8Zm9.44-4.21H32.56V8.61h8.72Z"/>
        <path d="M46.41,6.82v4.65h3.17a36.31,36.31,0,0,0,5.14-.38l.09.69a38.29,38.29,0,0,1-5.44.41h-3.7V6.12h6.17V2H45.67V1.33h6.91V6.82Zm10.35,9.49V0h.76V16.31Z"/>
        <path d="M73.91,13.18v.7H59.2v-.7ZM61.4,8.68V1.57H71.69v.7H62.16V8h9.69v.7Z"/>
        <path d="M85.38,2.21H78.94v9h2.87a27.73,27.73,0,0,0,5.08-.43l.11.72a32.81,32.81,0,0,1-5.45.43H78.18V1.5h7.2Zm7,4.72H89.47v9.38h-.76V0h.76V6.21h2.86Z"/>
        <path d="M99.13,12.87V9.27H92V8.59h14.71v.68H99.88v3.6ZM95,15.41h9.88v.69H94.23V11.27H95Zm9.3-12.06v.56c0,1.92-2.37,2.88-4.91,2.88s-4.9-.88-4.9-2.88V3.35c0-2,2.36-2.88,4.9-2.88S104.27,1.35,104.27,3.35Zm-.76.52V3.4c0-1.64-2-2.23-4.15-2.23s-4.14.59-4.14,2.23v.47c0,1.62,2,2.22,4.14,2.22S103.51,5.42,103.51,3.87Z"/>
      </g>
    </g>
  </g>
</svg>
