<svg xmlns="http://www.w3.org/2000/svg" viewBox="0 0 374.58 234.44">
  <defs>
    <style>
      .cls-1 {
        stroke: #000;
        stroke-miterlimit: 10;
        stroke-width: 7.76px;
      }
    </style>
  </defs>
  <g id="레이어_2" data-name="레이어 2">
    <g id="assets">
      <g>
        <path class="cls-1" d="M13.05,3.88v39.5H50V3.88h9.17v89H50V53.22H13.05V92.85H3.88v-89Z"/>
        <path class="cls-1" d="M106.22,92.85H96.93V53l-23-49.08h9.65l18,39.24,18-39.24h9.65L106.22,53Z"/>
        <path class="cls-1" d="M176.27,3.88a21.32,21.32,0,0,1,16.15,7.22,24.71,24.71,0,0,1,6.73,17.45q0,11.76-9.3,19.81a25,25,0,0,1,9.3,19.81,24.77,24.77,0,0,1-6.73,17.39,21.22,21.22,0,0,1-16.15,7.29H144v-89ZM176,43.38a13.21,13.21,0,0,0,10-4.29,14.75,14.75,0,0,0,4.05-10.54A14.78,14.78,0,0,0,186,18a13.23,13.23,0,0,0-10-4.28H153.16V43.38ZM153.16,83H176a13.2,13.2,0,0,0,10-4.28,14.76,14.76,0,0,0,4.05-10.55A14.77,14.77,0,0,0,186,57.63a13.23,13.23,0,0,0-10-4.28H153.16Z"/>
        <path class="cls-1" d="M271.58,92.85h-10L246,59.23H225.48V92.85H216.3v-89h29.43A24.1,24.1,0,0,1,264,12a27.79,27.79,0,0,1,7.56,19.63,28.37,28.37,0,0,1-4.52,15.53,25.55,25.55,0,0,1-11.92,10.16ZM245.73,49.38a15.5,15.5,0,0,0,11.79-5.24,17.87,17.87,0,0,0,4.89-12.65A17.74,17.74,0,0,0,257.52,19a15.53,15.53,0,0,0-11.79-5.24H225.48V49.38Z"/>
        <path class="cls-1" d="M296.36,3.88v89h-9.17v-89Z"/>
        <path class="cls-1" d="M343.07,3.88a25.74,25.74,0,0,1,19.59,8.63,29.67,29.67,0,0,1,8,21V63.19a29.67,29.67,0,0,1-8,21,25.78,25.78,0,0,1-19.59,8.63H315.43v-89Zm0,79.12a17.17,17.17,0,0,0,13-5.81,19.84,19.84,0,0,0,5.42-14V33.53a19.81,19.81,0,0,0-5.42-14,17.18,17.18,0,0,0-13-5.82H324.6V83Z"/>
        <path class="cls-1" d="M62.37,140.7A25.75,25.75,0,0,1,82,149.33a29.7,29.7,0,0,1,8,21V200a29.73,29.73,0,0,1-8,21,25.78,25.78,0,0,1-19.6,8.63H34.73v-89Zm0,79.12A17.19,17.19,0,0,0,75.42,214a19.84,19.84,0,0,0,5.42-14V170.35a19.81,19.81,0,0,0-5.42-14,17.2,17.2,0,0,0-13.05-5.82H43.91v69.28Z"/>
        <path class="cls-1" d="M104.79,169.46a29.68,29.68,0,0,1,8.1-21,26.44,26.44,0,0,1,39.14-.06,29.71,29.71,0,0,1,8,21v31.45a29.66,29.66,0,0,1-8.1,21,25.79,25.79,0,0,1-19.54,8.69q-11.33,0-19.48-8.76a29.57,29.57,0,0,1-8.16-20.89Zm46.1,0a19.7,19.7,0,0,0-5.42-14.06,17.67,17.67,0,0,0-26.09,0A19.74,19.74,0,0,0,114,169.46v31.45a19.77,19.77,0,0,0,5.48,13.93,17.28,17.28,0,0,0,26,0,19.73,19.73,0,0,0,5.48-13.93Z"/>
        <path class="cls-1" d="M239.77,212.79l18.59-72.09h9.17l-23.59,89h-9.05l-15.25-70.31-15.25,70.31h-9l-23.71-89h9.17l18.59,72.09,15.72-72.09h9.06Z"/>
        <path class="cls-1" d="M291.6,140.7l36.93,70.17V140.7h9.18v89h-9.18L291.6,159.49v70.18h-9.17v-89Z"/>
      </g>
    </g>
  </g>
</svg>
