<svg xmlns="http://www.w3.org/2000/svg" viewBox="0 0 611.8 14.29">
  <g id="레이어_2" data-name="레이어 2">
    <g id="assets">
      <g>
        <path d="M2.08,7a1,1,0,0,1-1,1A1.09,1.09,0,0,1,0,7,1.07,1.07,0,0,1,1,6a1.07,1.07,0,0,1,1,1Zm9,4.76-.67.66L5.58,7.58.8,12.42l-.64-.63L5,7,.19,2.18l.62-.66L5.59,6.36l4.83-4.84.6.63L6.19,7ZM6.54,2.5a1.07,1.07,0,0,1-1,1.06,1.09,1.09,0,0,1-1-1.06,1,1,0,0,1,2.07,0Zm-1,10.14a1,1,0,0,1-1-1,1,1,0,0,1,1-1,1.06,1.06,0,0,1,1,1A1,1,0,0,1,5.5,12.64ZM10.24,8a1.05,1.05,0,0,1-1-1,1,1,0,0,1,1-1,1.06,1.06,0,0,1,1,1A1,1,0,0,1,10.24,8Z"/>
        <path d="M16.06,7.14c4.74-2,5.18-2.6,5.18-4.62V1.75H16.53V.83h5.74V2.61c0,2.54-.79,3.26-5.8,5.4Zm1.77,1.62h8.6v5.05H25.38V9.69H17.83Zm8.6-5.4h2.1v.93h-2.1V8H25.38V0h1.05Z"/>
        <path d="M36,4.52c0,.25-.51.72-1.17,1.35s-1.41,1.24-2.23,1.9L32,7a23.26,23.26,0,0,0,2.43-2,2.72,2.72,0,0,0,1-2.46V.62h1.08V2.46A2.46,2.46,0,0,0,37.6,4.83c.74.65,1.53,1.28,2.19,1.75l-.63.74c-.79-.6-1.45-1.14-2-1.57A4.38,4.38,0,0,1,36,4.52Zm6.81,6.41v.57c0,1.58-1.83,2.57-4.08,2.57s-4.08-1-4.08-2.57v-.57c0-1.6,1.83-2.56,4.08-2.56S42.82,9.36,42.82,10.93Zm-1,.53V11c0-1.06-1.45-1.71-3.06-1.71s-3.06.65-3.06,1.71v.48c0,1.06,1.46,1.71,3.06,1.71S41.8,12.52,41.8,11.46Zm1-8h2.1V4.4h-2.1V8.07h-1V0h1Z"/>
        <path d="M47,9.15h3.93V7.35H45.16v-.9h12.6v.9H52v1.8h3.93v4.53H47ZM56.28.56v.87h-2V4.31h2v.86H46.59V4.31h2V1.43h-2V.56ZM48,12.74H54.9V10.08H48Zm1.63-8.43h3.6V1.43h-3.6Z"/>
        <path d="M70.89,7.21v.92H58.29V7.21Zm-9.68,5.41h8.1v.92H60.15v-4h1.06Zm-.93-9.2V2.85c0-1.53,1.86-2.53,4.31-2.53s4.3,1,4.3,2.53v.57C68.89,5,67,6,64.59,6S60.28,5,60.28,3.42Zm1-.5v.43c0,1,1.53,1.71,3.29,1.71s3.28-.73,3.28-1.71V2.92c0-1-1.53-1.7-3.28-1.7S61.3,1.94,61.3,2.92Z"/>
        <path d="M80.68,1.32V10H75.3V1.32Zm-1,1H76.33V9.06h3.32ZM83.4,5h2V0h1V13.71h-1V6h-2V13H82.35V.29H83.4Z"/>
        <path d="M92,4.77A4.6,4.6,0,0,1,90.82,6c-.52.47-1.54,1.28-2.23,1.78l-.65-.75A21.56,21.56,0,0,0,90.52,5a2.47,2.47,0,0,0,.9-2.06V1.79H88.33V.87h7.11v.92h-3V2.88A2.26,2.26,0,0,0,93.57,5c.48.41,1.32,1,2.17,1.61l-.61.75c-.6-.42-1.32-1-1.77-1.33A6,6,0,0,1,92,4.77Zm6.62,6.16v.57c0,1.58-1.83,2.57-4.08,2.57s-4.08-1-4.08-2.57v-.57c0-1.6,1.83-2.56,4.08-2.56S98.61,9.36,98.61,10.93Zm-1,.53V11c0-1.06-1.46-1.71-3.06-1.71s-3.06.65-3.06,1.71v.48c0,1.06,1.45,1.71,3.06,1.71S97.59,12.52,97.59,11.46Zm.94-8h2.1V4.4h-2.1V8.07h-1V0h1Z"/>
        <path d="M107.91,1.26v8.81h-6.32V1.26Zm-1,1h-4.22V9.11h4.22Zm4.68,2.86h2.28V6h-2.28v7.68h-1.07V0h1.07Z"/>
        <path d="M114.78,1.25H121v1h-5.18V9.09h1.77a26.46,26.46,0,0,0,4.67-.38l.13.95a29.17,29.17,0,0,1-5.07.39h-2.56Zm9.87,3.83h2.28V6h-2.28v7.68h-1.07V0h1.07Z"/>
        <path d="M130.77,1.35h6v.93h-2.41v2a3.68,3.68,0,0,0,.91,2.85,30.09,30.09,0,0,0,2.06,2.25l-.69.67c-.66-.66-1.46-1.57-2-2.14a5.53,5.53,0,0,1-.81-1.14h0a4.39,4.39,0,0,1-.75,1.13c-.56.64-1.25,1.4-2.19,2.34l-.71-.71a24.75,24.75,0,0,0,2.24-2.38,3.84,3.84,0,0,0,.87-2.87v-2h-2.52Zm8.38,3.73h2V0h1V13.71h-1V6h-2v7H138.1V.29h1.05Z"/>
        <path d="M148.27,10.86V5.59h1.08v5.27h6.74v.92h-12.6v-.92ZM152.56,9a28.06,28.06,0,0,0,.54-5.51V2.22h-8V1.29h9.12V2.91a31.57,31.57,0,0,1-.53,6.2Z"/>
        <path d="M157,9.7c4.6-2.63,5.1-3.5,5.1-5.74V2.27h-5v-1h6V4c0,2.72-.7,3.73-5.58,6.58ZM167.2,5.24h2.28v.94H167.2v7.53h-1.06V0h1.06Z"/>
        <path d="M176.94,4.52a4.65,4.65,0,0,1-1.17,1.35c-.53.49-1.41,1.24-2.24,1.9L172.87,7a22.27,22.27,0,0,0,2.43-2,2.69,2.69,0,0,0,1-2.46V.62h1.08V2.46a2.44,2.44,0,0,0,1.1,2.37,27,27,0,0,0,2.19,1.75l-.63.74c-.8-.6-1.46-1.14-2-1.57A4.55,4.55,0,0,1,177,4.52Zm6.81,6.41v.57c0,1.58-1.83,2.57-4.08,2.57s-4.08-1-4.08-2.57v-.57c0-1.6,1.83-2.56,4.08-2.56S183.75,9.36,183.75,10.93Zm-1,.53V11c0-1.06-1.46-1.71-3.06-1.71s-3.06.65-3.06,1.71v.48c0,1.06,1.45,1.71,3.06,1.71S182.73,12.52,182.73,11.46Zm.94-8h2.1V4.4h-2.1V8.07h-1V0h1Z"/>
        <path d="M193.62,6.36c0,2.51-1.26,4-3.39,4s-3.39-1.48-3.39-4V4.94c0-2.51,1.26-4,3.39-4s3.39,1.49,3.39,4Zm-1-1.23c0-2.28-.94-3.18-2.35-3.18s-2.36.9-2.36,3.18v1c0,2.28.95,3.2,2.36,3.2s2.35-.92,2.35-3.2Zm4.82,8.58h-1.07V0h1.07Z"/>
        <path d="M202.74,2.16V.08h1.06V2.16h3.42v.93h-7.95V2.16ZM200,7.72v-.8a3.27,3.27,0,0,1,6.48,0v.8a3.27,3.27,0,0,1-6.48,0ZM201,7v.63a2.25,2.25,0,0,0,4.47,0V7A2.25,2.25,0,0,0,201,7Zm8.86-1.39h2.28v.94h-2.28v7.16h-1.06V0h1.06Z"/>
        <path d="M219.46,1.26v2h3.26V0h1V13.71h-1V7.86h-3.26v2.21h-6.34V1.26Zm-1.05,1h-4.24V9.11h4.24Zm1.05,4.68h3.26V4.26h-3.26Z"/>
        <path d="M226.27,10.92h1.32l-1.08,3.37h-.87Z"/>
        <path d="M236.25,5.2a4.73,4.73,0,0,1-1.17,1.28c-.53.47-1.55,1.27-2.24,1.77l-.64-.75a24.41,24.41,0,0,0,2.58-2.08,2.51,2.51,0,0,0,.9-2.06V1.82h-3.09V.9h7.09v.92h-2.94v1.5a2.29,2.29,0,0,0,1.08,2.13c.48.4,1.32,1,2.18,1.6l-.62.74c-.61-.42-1.32-1-1.77-1.31a6.19,6.19,0,0,1-1.35-1.28Zm-.35,7.42h7.68v.92h-8.74V9h1.06Zm6.29-9V0h1.05V9.79h-1.05V4.58h-2.87V3.65Z"/>
        <path d="M252.16,4.52c0,.25-.51.72-1.17,1.35s-1.41,1.24-2.23,1.9L248.1,7a23.26,23.26,0,0,0,2.43-2,2.72,2.72,0,0,0,1.05-2.46V.62h1.08V2.46a2.46,2.46,0,0,0,1.09,2.37c.74.65,1.53,1.28,2.19,1.75l-.63.74c-.79-.6-1.45-1.14-2-1.57a4.38,4.38,0,0,1-1.17-1.23ZM259,10.93v.57c0,1.58-1.83,2.57-4.08,2.57s-4.08-1-4.08-2.57v-.57c0-1.6,1.83-2.56,4.08-2.56S259,9.36,259,10.93Zm-1,.53V11c0-1.06-1.45-1.71-3.06-1.71s-3.06.65-3.06,1.71v.48c0,1.06,1.46,1.71,3.06,1.71S258,12.52,258,11.46Zm.95-8H261V4.4h-2.1V8.07h-1V0h1Z"/>
        <path d="M263.16,9.15h3.93V7.35h-5.78v-.9h12.6v.9h-5.77v1.8h3.93v4.53h-8.91ZM272.43.56v.87h-2V4.31h2v.86h-9.75V4.31h2V1.43h-2V.56Zm-8.25,12.18h6.87V10.08h-6.87Zm1.63-8.43h3.6V1.43h-3.6Z"/>
        <path d="M279.48,9.36h1.93a29.23,29.23,0,0,0,4.55-.3l.12.91a31.15,31.15,0,0,1-4.94.33h-2.71V5.06h5V2h-5V1.11h6V6h-5Zm8.85-4.23h2.28v1h-2.28v7.63h-1.07V0h1.07Z"/>
        <path d="M291.42,4.52v-.9a3.4,3.4,0,0,1,6.75,0v.9a3.4,3.4,0,0,1-6.75,0Zm1-.82v.72a2.36,2.36,0,0,0,4.71,0V3.7a2.36,2.36,0,0,0-4.71,0Zm2.35,8.92h7.67v.92h-8.73V9.06h1.06Zm7.32-2.81h-1.05V0h1.05Z"/>
        <path d="M304.39,3.24A3.08,3.08,0,0,1,307.74.51a3.12,3.12,0,0,1,3.34,2.61h3.12V0h1.05V7H314.2V4.05h-3.12A3.43,3.43,0,0,1,304.39,4Zm5.67.11a2.37,2.37,0,0,0-4.65,0v.51a2.38,2.38,0,0,0,4.65,0Zm5.19,4.47V13.7h-8.37V7.82h1V9.7h6.29V7.82Zm-1,4.93V10.63h-6.29v2.12Z"/>
        <path d="M326,10.18a74.24,74.24,0,0,1-8.87.35V9.6c1.1,0,2,0,2.9,0V5.22H321V9.57c1.94,0,3.33-.14,4.82-.3Zm-1.34-8.86V3a24.62,24.62,0,0,1-.36,4.5l-1.06-.14a21.21,21.21,0,0,0,.36-4.15V2.27h-5.78V1.32ZM328,5.22h2.17v1H328v7.54h-1.06V0H328Z"/>
        <path d="M339.37,7.25c-.57-.49-1.2-1.07-1.65-1.52a4.88,4.88,0,0,1-.92-1.06h0a3.3,3.3,0,0,1-.72,1,22,22,0,0,1-2.13,2l-.67-.7a17.7,17.7,0,0,0,2.11-2,3,3,0,0,0,.87-2.47V.66h1.05V2.48a2.73,2.73,0,0,0,.89,2.38A20.25,20.25,0,0,0,340,6.55ZM336,8.82H345v5h-1V9.75H336Zm5.88-5.46h2V0h1V8h-1V4.31h-2V8h-1V.18h1Z"/>
        <path d="M350.49,4.52a4.82,4.82,0,0,1-1.17,1.35c-.53.49-1.41,1.24-2.24,1.9L346.42,7a22.27,22.27,0,0,0,2.43-2,2.69,2.69,0,0,0,1-2.46V.62H351V2.46a2.44,2.44,0,0,0,1.1,2.37,27,27,0,0,0,2.19,1.75l-.64.74c-.79-.6-1.45-1.14-2-1.57a4.55,4.55,0,0,1-1.17-1.23Zm6.81,6.41v.57c0,1.58-1.84,2.57-4.09,2.57s-4.08-1-4.08-2.57v-.57c0-1.6,1.83-2.56,4.08-2.56S357.3,9.36,357.3,10.93Zm-1,.53V11c0-1.06-1.46-1.71-3.07-1.71s-3,.65-3,1.71v.48c0,1.06,1.45,1.71,3,1.71S356.28,12.52,356.28,11.46Zm.94-8h2.1V4.4h-2.1V8.07h-1.05V0h1.05Z"/>
        <path d="M372.23,7.21v.92h-12.6V7.21Zm-9.67,5.41h8.1v.92H361.5v-4h1.06Zm-.93-9.2V2.85c0-1.53,1.86-2.53,4.31-2.53s4.3,1,4.3,2.53v.57c0,1.53-1.86,2.53-4.3,2.53S361.63,5,361.63,3.42Zm1-.5v.43c0,1,1.53,1.71,3.29,1.71s3.28-.73,3.28-1.71V2.92c0-1-1.53-1.7-3.28-1.7S362.65,1.94,362.65,2.92Z"/>
        <path d="M381.76,7.45V5.88C379.57,5.75,378,4.77,378,3.39V2.82c0-1.5,1.86-2.5,4.31-2.5s4.3,1,4.3,2.5v.57c0,1.38-1.61,2.36-3.78,2.49V7.45h5.77v.91H376V7.45Zm-2.85,5.17H387v.92h-9.15v-4h1.07ZM379,2.9v.42c0,.94,1.53,1.68,3.29,1.68s3.28-.74,3.28-1.68V2.9c0-.95-1.53-1.68-3.28-1.68S379,2,379,2.9Z"/>
        <path d="M390.92,9.36h1.94a29,29,0,0,0,4.54-.3l.12.91a31.1,31.1,0,0,1-4.93.33h-2.71V5.06h5V2h-5V1.11h6V6h-5Zm8.85-4.23h2.28v1h-2.28v7.63h-1.06V0h1.06Z"/>
        <path d="M402.87,4.52v-.9a3.4,3.4,0,0,1,6.75,0v.9a3.4,3.4,0,0,1-6.75,0Zm1-.82v.72a2.36,2.36,0,0,0,4.71,0V3.7a2.36,2.36,0,0,0-4.71,0Zm2.36,8.92h7.66v.92h-8.73V9.06h1.07Zm7.32-2.81h-1.05V0h1.05Z"/>
        <path d="M431.18,10.86v.92h-12.6v-.92ZM424.87,5a5.27,5.27,0,0,1-1.76,1.53c-.9.6-2.13,1.34-3.21,1.92l-.57-.84a30.84,30.84,0,0,0,3.17-1.85c1.48-1,1.83-1.46,1.83-3.09V1h1.09V2.62c0,1.63.33,2.09,1.82,3.09a30.33,30.33,0,0,0,3.13,1.83l-.55.83c-1.07-.58-2.28-1.3-3.18-1.91A5.43,5.43,0,0,1,424.88,5Z"/>
        <path d="M442.63,8.16h-4.1v2.7h5.78v.92h-12.6v-.92h5.77V8.16h-3.93V1.08h9V2h-7.92V4.17h7.84v.9h-7.84V7.26h8Z"/>
        <path d="M456.2,13.71h-1.05V5.88h-3.07v.46c0,2.51-1.26,4-3.38,4s-3.37-1.47-3.37-4V4.94c0-2.49,1.26-4,3.37-4s3.36,1.47,3.38,3.94h3.07V0h1.05ZM451,5.13C451,2.85,450.11,2,448.7,2s-2.34.89-2.34,3.17v1c0,2.28.93,3.17,2.34,3.17S451,8.45,451,6.17Z"/>
        <path d="M458.36,6.27V5.1c0-2.56.95-4,2.93-4s2.92,1.43,2.92,4v.07h1.85V.29h1.05V13h-1.05V6.12h-1.85v.15c0,2.56-.94,4-2.92,4S458.36,8.83,458.36,6.27Zm1-1v.93c0,2,.57,3.14,1.91,3.14s1.9-1.09,1.9-3.14V5.22c0-2-.57-3.14-1.9-3.14S459.38,3.17,459.38,5.22Zm10.37,8.49H468.7V0h1.05Z"/>
        <path d="M474.65,4.23V1h1.1V4.16a3.14,3.14,0,0,0,.9,2.58,31.79,31.79,0,0,0,2.61,2.6l-.69.73c-.95-.9-1.79-1.73-2.39-2.37a7.57,7.57,0,0,1-1-1.17h0a7.7,7.7,0,0,1-1.07,1.39c-.52.57-1.51,1.58-2.4,2.36l-.7-.74a28.36,28.36,0,0,0,2.52-2.46A3.55,3.55,0,0,0,474.65,4.23Zm7.79,9.48h-1.05V5.31h-3.26v-1h3.26V0h1.05Z"/>
        <path d="M494.23,7.32h-6.12V.86h6.12Zm-1-5.53h-4.08v4.6h4.08Zm-2.15,10.83h7.56v.92H490V9h1.06ZM498.2,4h2.1v.94h-2.1V9.81h-1.05V0h1.05Z"/>
        <path d="M502.57,9h1.69a25.86,25.86,0,0,0,4.58-.38l.13.94a28.36,28.36,0,0,1-4.81.4H501.5V1.12h1.07Zm8.61-4h2.28V6h-2.28v7.74h-1.07V0h1.07Z"/>
        <path d="M524.42,1.05V7.89h-3.91v3h5.77v.92h-12.6v-.92h5.78v-3h-3.92V1.05h1V3.51h6.81V1.05Zm-1,6V4.42h-6.81V7Z"/>
        <path d="M531.08,3.92A3.91,3.91,0,0,1,530,5.15c-.52.46-1.36,1.15-2.38,1.89L527,6.27a28.14,28.14,0,0,0,2.43-1.9A2.73,2.73,0,0,0,530.5,2V.35h1.08V1.92a2.27,2.27,0,0,0,1.08,2.24,26.31,26.31,0,0,0,2.2,1.63l-.6.76c-.7-.49-1.38-1-1.81-1.35a5.18,5.18,0,0,1-1.35-1.28Zm7,3.67v3.53h-7.35v1.73h7.71v.9h-8.74V10.23H537V8.5h-7.43V7.59Zm0-.81H537V0h1.05Z"/>
        <path d="M555.76,7.88v.91H550v4.92h-1.07V8.79h-5.77V7.88Zm-6.3-4.18h0A4.09,4.09,0,0,1,547.69,5c-.81.4-2,.94-3.2,1.43L544,5.57a35,35,0,0,0,3.31-1.47,2.27,2.27,0,0,0,1.58-2.42V.48H550v1.2a2.27,2.27,0,0,0,1.56,2.42,34.6,34.6,0,0,0,3.29,1.45l-.45.83c-1.22-.48-2.36-1-3.17-1.42A4,4,0,0,1,549.46,3.7Z"/>
        <path d="M560.15,4.14V3.3a3.39,3.39,0,0,1,6.69,0v.84a3.39,3.39,0,0,1-6.69,0Zm3.89,7.2A4.8,4.8,0,0,1,563,12.45c-.37.33-.88.75-1.59,1.29L560.8,13c.64-.48,1.15-.89,1.53-1.21,1.12-1,1.2-1.34,1.2-2.32V8.26h1V9.51c0,.91,0,1.2,1,2.15.24.23.56.51.93.8a10.87,10.87,0,0,0,.93-.8c1-.95,1-1.24,1-2.15V8.26h1v1.2c0,1,.07,1.34,1.2,2.32.37.32.88.73,1.53,1.21l-.59.75c-.7-.54-1.21-1-1.59-1.29a4.89,4.89,0,0,1-1.06-1.11,12.89,12.89,0,0,1-2.45,2.4A12.62,12.62,0,0,1,564,11.34Zm-2.87-7.95v.66a2.35,2.35,0,0,0,4.65,0V3.39a2.35,2.35,0,0,0-4.65,0Zm9.66,4h-1.05V0h1.05Z"/>
        <path d="M585.23,6.41v.91h-12.6V6.41Zm-1.38-1c-1.05-.41-2.25-.93-3-1.29-1.27-.6-1.8-1-1.9-1.26h0c-.1.3-.63.68-1.9,1.28-.75.35-1.94.88-3,1.28l-.43-.85c1.35-.53,2.46-1,3.18-1.35,1.35-.66,1.62-1.05,1.62-2.08v-1h1.06v1c0,1,.26,1.42,1.61,2.08.72.36,1.84.82,3.18,1.35Zm-.45,3.08V13.7h-8.94V8.45h1v1.67h6.87V8.45Zm-1,4.3v-1.7H575.5v1.7Z"/>
        <path d="M588,9h2a25.86,25.86,0,0,0,4.58-.38l.13.94a28.36,28.36,0,0,1-4.81.4h-2.93V1.12H588Zm9.09,4.72H596V0h1.07Z"/>
        <path d="M599.65,1.25h6.24v1h-5.18V9.09h1.77a26.46,26.46,0,0,0,4.67-.38l.13.95a29.17,29.17,0,0,1-5.07.39h-2.56Zm9.87,3.83h2.28V6h-2.28v7.68h-1.07V0h1.07Z"/>
      </g>
    </g>
  </g>
</svg>
