<svg xmlns="http://www.w3.org/2000/svg" viewBox="0 0 76.42 38.95">
  <defs>
    <style>
      .cls-1 {
        fill: #e60012;
      }

      .cls-2 {
        fill: #fff;
      }
    </style>
  </defs>
  <g id="레이어_2" data-name="레이어 2">
    <g id="assets">
      <g>
        <rect class="cls-1" width="76.42" height="38.95"/>
        <g>
          <polygon class="cls-2" points="22.97 20.92 19.57 10.83 16.89 10.83 16.89 28.12 19.6 28.12 19.6 19.05 21.72 25.43 24.22 25.43 26.35 19.05 26.35 28.12 29.05 28.12 29.05 10.83 26.38 10.83 22.97 20.92"/>
          <path class="cls-2" d="M37.46,10.83,31.74,28.12h2.94l1.17-3.6h5.72l1.16,3.6h3L40,10.83Zm3.18,10.78H36.8l1.91-5.94Z"/>
          <polygon class="cls-2" points="56.73 10.83 56.73 21.86 50.93 10.83 48.36 10.83 48.36 28.12 51.15 28.12 51.15 17.09 56.96 28.12 59.53 28.12 59.53 10.83 56.73 10.83"/>
        </g>
      </g>
    </g>
  </g>
</svg>
