<svg xmlns="http://www.w3.org/2000/svg" viewBox="0 0 416.28 11.19">
  <g id="레이어_2" data-name="레이어 2">
    <g id="assets">
      <g>
        <path d="M5.25,3.26H3.72V2.9A1.66,1.66,0,0,0,3.47,2a.9.9,0,0,0-.83-.39,1,1,0,0,0-.51.12A.92.92,0,0,0,1.82,2a1.28,1.28,0,0,0-.17.45,3.12,3.12,0,0,0,0,.54,4.36,4.36,0,0,0,0,.54.94.94,0,0,0,.11.38.83.83,0,0,0,.26.3,3.9,3.9,0,0,0,.47.25l1.18.47a3,3,0,0,1,.82.48A2,2,0,0,1,5,6a2.73,2.73,0,0,1,.23.84A8.77,8.77,0,0,1,5.25,8a5.88,5.88,0,0,1-.13,1.29,2.82,2.82,0,0,1-.44,1,2.19,2.19,0,0,1-.82.68,3,3,0,0,1-1.25.25,2.66,2.66,0,0,1-1-.2,2.43,2.43,0,0,1-.83-.56A2.79,2.79,0,0,1,.2,9.6a2.63,2.63,0,0,1-.2-1V8H1.53v.49a1.27,1.27,0,0,0,.25.78,1,1,0,0,0,.83.35,1.29,1.29,0,0,0,.61-.12.75.75,0,0,0,.33-.33,1.28,1.28,0,0,0,.15-.52c0-.2,0-.42,0-.67a6.88,6.88,0,0,0,0-.71,1.34,1.34,0,0,0-.12-.45.81.81,0,0,0-.28-.27,3,3,0,0,0-.45-.24l-1.1-.46A2.51,2.51,0,0,1,.41,4.74,4,4,0,0,1,.08,3,4.08,4.08,0,0,1,.24,1.84a2.59,2.59,0,0,1,.5-1,2.2,2.2,0,0,1,.8-.64A2.58,2.58,0,0,1,2.7,0a2.36,2.36,0,0,1,1,.22,2.52,2.52,0,0,1,.82.57,2.41,2.41,0,0,1,.69,1.7Z"/>
        <path d="M6,2.69a2.92,2.92,0,0,1,.23-1.18,2.51,2.51,0,0,1,.6-.85A2.58,2.58,0,0,1,7.64.17a2.6,2.6,0,0,1,1.85,0,2.8,2.8,0,0,1,.83.49,2.8,2.8,0,0,1,.59.85,3.1,3.1,0,0,1,.22,1.18V8.5a3,3,0,0,1-.22,1.19,2.65,2.65,0,0,1-.59.82,2.86,2.86,0,0,1-.83.51,2.6,2.6,0,0,1-1.85,0,2.64,2.64,0,0,1-.81-.51,2.39,2.39,0,0,1-.6-.82A2.87,2.87,0,0,1,6,8.5ZM7.53,8.5a1,1,0,0,0,.31.84,1.11,1.11,0,0,0,1.45,0A1,1,0,0,0,9.6,8.5V2.69a1,1,0,0,0-.31-.84,1.11,1.11,0,0,0-1.45,0,1,1,0,0,0-.31.84Z"/>
        <path d="M17.13.09V8.62a2.55,2.55,0,0,1-.72,1.81,2.58,2.58,0,0,1-.79.56,2.39,2.39,0,0,1-1,.2,2.36,2.36,0,0,1-1-.2,2.54,2.54,0,0,1-.78-.56,2.4,2.4,0,0,1-.54-.81,2.55,2.55,0,0,1-.2-1V.09h1.53V8.47a1.18,1.18,0,0,0,.27.86,1,1,0,0,0,1.35,0,1.18,1.18,0,0,0,.27-.86V.09Z"/>
        <path d="M18.27,11.09V.09h4.56V1.58h-3V4.91h2.64V6.4H19.8v4.69Z"/>
        <path d="M23.52,11.09V.09h4.56V1.58h-3V4.91h2.64V6.4H25.05v4.69Z"/>
        <path d="M28.77,11.09V.09H30.3V9.52h3v1.57Z"/>
        <path d="M34,11.09V.09h4.56V1.58h-3V4.81h2.64V6.29H35.55V9.52h3v1.57Z"/>
      </g>
      <g>
        <path d="M395.84,11.09V6.44L393.74.09h1.62l1.23,4.38h0L397.85.09h1.62l-2.1,6.35v4.65Z"/>
        <path d="M398.42,11.09l2.38-11h1.28l2.38,11h-1.53l-.45-2.36H400.4L400,11.09Zm3.78-3.84-.75-4h0l-.75,4Z"/>
        <path d="M404.91,11.09V.09h2.46c1.8,0,2.7,1.08,2.7,3.23A4.33,4.33,0,0,1,409.78,5a2.35,2.35,0,0,1-1,1.09l1.65,5h-1.62L407.36,6.4h-.92v4.69Zm1.53-9.51V5h.87a1.51,1.51,0,0,0,.65-.12.91.91,0,0,0,.37-.33A1.56,1.56,0,0,0,408.5,4a5.25,5.25,0,0,0,0-.73,5.25,5.25,0,0,0,0-.73,1.49,1.49,0,0,0-.18-.55,1.21,1.21,0,0,0-1.08-.43Z"/>
        <path d="M410.94,11.09V.09h1.47l2.31,6.63h0V.09h1.53v11h-1.44L412.5,4.48h0v6.61Z"/>
      </g>
    </g>
  </g>
</svg>
