<svg xmlns="http://www.w3.org/2000/svg" viewBox="0 0 311.22 46.71">
  <defs>
    <style>
      .cls-1 {
        fill: #595757;
      }
    </style>
  </defs>
  <g id="레이어_2" data-name="레이어 2">
    <g id="assets">
      <g>
        <path class="cls-1" d="M13.31,5.64V6.3H7.89V8.59H15v.68H0V8.59H7.11V6.3H1.69V5.64H4.32V1.4H1.76V.74H13.23V1.4H10.68V5.64ZM1.89,11.42H12.78v5H12V12.1H1.89ZM5.08,5.64H9.92V1.4H5.08Z"/>
        <path class="cls-1" d="M21.1,5.55a6.73,6.73,0,0,1-1.57,1.78c-.66.61-1.44,1.28-2.65,2.23L16.4,9a33,33,0,0,0,2.9-2.43c1.4-1.36,1.35-1.65,1.35-3.09V.77h.79V3.48c0,1.38.13,1.78,1.37,2.93A26.67,26.67,0,0,0,25.4,8.48L25,9c-.83-.6-1.71-1.32-2.38-1.89a5.16,5.16,0,0,1-1.45-1.6Zm-.69,9.85h9.38v.71H19.64V10.7h.77Zm8.18-3.73V0h.77V11.67Z"/>
        <path class="cls-1" d="M36.47,2.74V.07h.77V2.74H41.6v.72H32.11V2.74ZM33.08,9.15V8.21A3.48,3.48,0,0,1,36.85,4.9a3.47,3.47,0,0,1,3.76,3.31v.94a3.47,3.47,0,0,1-3.76,3.31A3.48,3.48,0,0,1,33.08,9.15Zm.76-.92v.9a2.77,2.77,0,0,0,3,2.61,2.76,2.76,0,0,0,3-2.61v-.9a2.76,2.76,0,0,0-3-2.61A2.77,2.77,0,0,0,33.84,8.23ZM47.6,7.6H44.68v8.71h-.77V0h.77V6.88H47.6Z"/>
        <path class="cls-1" d="M63.08,13.2v.68h-15V13.2h6V6.68h.77V13.2ZM60.77,1.6V3.53a37.24,37.24,0,0,1-.7,7.36l-.74-.09A34.72,34.72,0,0,0,60,4V2.3H50V1.6Z"/>
        <path class="cls-1" d="M68.83,11.74c5.37-3,6.27-4.2,6.27-6.91V2.3H68.89V1.58h7v3.3c0,3.28-1.42,4.61-6.6,7.53ZM83.56,7.15H80.64v9.16h-.77V0h.77V6.43h2.92Z"/>
        <path class="cls-1" d="M85.21,11.94V1.39H86V5.58h5.72V1.39h.78V4.32H97V0h.77V16.31H97V9.13H92.49v2.81Zm.78-.72h5.72V6.3H86ZM92.49,5V8.41H97V5Z"/>
        <path class="cls-1" d="M100.58,9a93.36,93.36,0,0,0,11-.4l.07.7c-1.82.2-3.24.31-5.58.36v6.14h-.79V9.65c-1.26,0-2.76,0-4.65,0Zm9.2-4.79c0,1.89-2.14,2.88-4,2.88s-4-1-4-2.85v-1c0-1.86,2.14-2.86,4-2.86s4,1,4,2.9ZM109,3.33c0-1.28-1.48-2.21-3.3-2.21s-3.29.93-3.29,2.18v.88c0,1.24,1.47,2.18,3.29,2.18s3.3-.94,3.3-2.22Zm4,13V12.42h-4.3v-.73h4.3V0h.77V16.31Z"/>
        <path class="cls-1" d="M122.94,11.15V2.32h-1.86V1.6h9.55v.72h-2.14v8.79c.9,0,1.83-.09,3-.23l.05.66a44,44,0,0,1-5.92.33h-4.73v-.72Zm.77,0h4V2.32h-4Zm9.4,5.16V0h.78V16.31Z"/>
        <path class="cls-1" d="M143.55,16.31V10.64h-7.11V10h15v.68h-7.13v5.67Zm5.6-8.93H138.74V.63h.76V3.28h8.89V.63h.76ZM139.5,6.7h8.89V4H139.5Z"/>
        <path class="cls-1" d="M159.79,6.19v.17h2.7v-6h.77V15.5h-.77V7.08h-2.7v.23c0,2.39-.76,4.81-3.37,4.81s-3.37-2.42-3.37-4.81V6.19c0-2.39.76-4.8,3.37-4.8S159.79,3.8,159.79,6.19Zm-.78,1V6.28c0-2.14-.47-4.16-2.59-4.16s-2.59,2-2.59,4.16v.94c0,2.14.46,4.16,2.59,4.16S159,9.36,159,7.22ZM165.53,0h.77V16.31h-.77Z"/>
        <path class="cls-1" d="M177.5,7.44A6.8,6.8,0,0,1,176,9.52c-.53.56-1.73,1.82-2.78,2.72l-.52-.55a35.35,35.35,0,0,0,3.13-3.08,3.91,3.91,0,0,0,1.26-3.32v-3h-4v-.7h8.74v.7h-4v3a3.47,3.47,0,0,0,1.19,3c.86.94,2,2,3.13,3.08l-.52.52c-1-.92-2.06-2-2.87-2.79a5,5,0,0,1-1.27-1.67Zm10.58-.29h-2.91v9.16h-.78V0h.78V6.43h2.91Z"/>
        <path class="cls-1" d="M188.64,7.8V7.11H200a15.94,15.94,0,0,0,.56-4.3V1.49h-9.92V.81H201.3v2a17.7,17.7,0,0,1-.51,4.34h2.86V7.8Zm12.78,2.79V16.4h-.75V11.27H190.53v-.68Z"/>
        <path class="cls-1" d="M219.67,7.49v.67h-15V7.49ZM207,16.35V12.78h9.63V10.57h-9.72V9.9h10.48v3.53h-9.63v2.25h10.12v.67ZM217.17,2.92v.39c0,1.79-2.52,2.69-5,2.69s-5-.83-5-2.69V2.92c0-1.86,2.52-2.69,5-2.69S217.17,1.06,217.17,2.92Zm-.77.36V3c0-1.44-2.15-2-4.23-2s-4.24.59-4.24,2v.31c0,1.42,2.15,2,4.24,2S216.4,4.63,216.4,3.28Z"/>
        <path class="cls-1" d="M232,16.31v-6.1h-7.13V9.52h15v.69h-7.11v6.1Zm.79-14.56V2.83c0,1.37,1,2,2.9,2.84,1.11.52,1.89.83,3.06,1.28l-.31.59c-1.27-.48-2-.79-3-1.27-1.44-.71-2.7-1.28-3-2-.32.76-1.58,1.33-3,2a32,32,0,0,1-3,1.27L226,7c1.17-.45,1.94-.76,3.06-1.28,1.85-.86,2.9-1.47,2.9-2.84V1.75H226.8V1.1h11v.65Z"/>
        <path class="cls-1" d="M246.28,7.47a6.76,6.76,0,0,1-1.52,2.09c-.52.56-1.73,1.82-2.77,2.72l-.52-.56a34,34,0,0,0,3.13-3.08,3.91,3.91,0,0,0,1.26-3.31V2.23h-4v-.7h8.73v.7h-4v3.1a3.47,3.47,0,0,0,1.18,3c.87.93,2,2,3.14,3.08l-.53.52c-1-.92-2.05-2-2.86-2.79a5.26,5.26,0,0,1-1.28-1.68Zm7.41,8.84V0h.78V16.31Z"/>
        <path class="cls-1" d="M269.3,4.72c0,1.91-1.8,3.22-3.87,3.22s-3.87-1.3-3.87-3.22V3.8c0-1.91,1.8-3.22,3.87-3.22s3.87,1.31,3.87,3.22Zm-.78-.81c0-1.53-1.29-2.6-3.09-2.6s-3.1,1.07-3.1,2.6v.7c0,1.53,1.3,2.59,3.1,2.59s3.09-1.06,3.09-2.59ZM264,15.48h1.24a15.35,15.35,0,0,0,2.58-.19l.07.68a17,17,0,0,1-2.9.2h-1.76V9.81H264ZM275,11.13h-7.27v-.67h3.31V8.57h.77v1.89H275Zm-.59,3.45c0,1.16-1.23,2.13-3,2.13s-3-1-3-2.13v-.43c0-1.15,1.23-2.12,3-2.12s3,1,3,2.12Zm-.72-.37c0-.81-1-1.52-2.29-1.52s-2.29.71-2.29,1.52v.32c0,.81,1,1.51,2.29,1.51s2.29-.7,2.29-1.51Zm2.7-9.73h-2.68V7.71H273V0h.78V3.78h2.68Z"/>
        <path class="cls-1" d="M292,13.18v.7H277v-.7ZM279.27,5.69V4.86c0-2.23,2.34-3.74,5.26-3.74s5.25,1.51,5.25,3.74v.83c0,2.14-2.37,3.76-5.25,3.76S279.27,7.83,279.27,5.69Zm.77-.81v.79c0,1.69,1.82,3,4.49,3s4.48-1.35,4.48-3V4.88c0-1.69-1.86-3-4.48-3S280,3.19,280,4.88Z"/>
        <path class="cls-1" d="M305.78,9.15h-4.44v2.79H294V1.53h7.35V4.09h4.44V0h.78V16.31h-.78Zm-11,2.07h5.8v-9h-5.8Zm6.58-6.41V8.43h4.44V4.81Z"/>
        <path class="cls-1" d="M309.72,13.07h1.21l-1.06,4h-.8Z"/>
        <path class="cls-1" d="M54.36,37.78v.68h-15v-.68H45.6V34.16h.77v3.62Zm-13-7H52v1.28a22.15,22.15,0,0,1-.45,4.43l-.77-.09a21.71,21.71,0,0,0,.47-4.27v-.66H41.35Zm.52,13.13v-.67c0-1.71,2.07-2.8,5-2.8s5,1.09,5,2.8v.67c0,1.71-2.07,2.81-5,2.81S41.87,45.61,41.87,43.9Zm.75-.63v.59c0,1.32,1.88,2.16,4.24,2.16s4.23-.84,4.23-2.16v-.59c0-1.31-1.88-2.16-4.23-2.16S42.62,42,42.62,43.27Z"/>
        <path class="cls-1" d="M56.34,41.74c5.37-3,6.3-4.2,6.3-6.91V32.31H56.39v-.73h7v3.3c0,3.28-1.46,4.61-6.65,7.53Zm11.58,4.57V30h.77V46.31Z"/>
        <path class="cls-1" d="M86.4,37.89v.68h-15v-.68ZM73.71,46.35V43h9.63V41H73.62v-.67H84.1v3.31H74.47v2H84.58v.67Zm0-10.17V33h9.54V31.12H73.71v-.67H84v3.17H74.47v1.89h9.94v.67Z"/>
        <path class="cls-1" d="M92.5,41.94V31.53h7.38v4.52h4.41V30h.78V46.31h-.78V36.77H99.88v5.17Zm.78-.72h5.83v-9H93.28Z"/>
        <path class="cls-1" d="M109.55,30.81h10.67v1.87a17.82,17.82,0,0,1-.48,4.27h2.84v.68h-15V37h11.36a15.44,15.44,0,0,0,.54-4.23V31.49h-9.92Zm10.78,15.45H109.82V40.32h10.51ZM119.58,41h-9v4.57h9Z"/>
        <path class="cls-1" d="M138.6,38.79v.68h-15v-.68Zm-12,6.62h10.07v.69H125.86V41.34h.75Zm9.49-12V34c0,1.93-2.41,2.92-5,2.92s-5-.92-5-2.92V33.4c0-2,2.41-2.91,5-2.91S136.1,31.4,136.1,33.4Zm-.77.53v-.47c0-1.64-2.09-2.27-4.24-2.27s-4.23.63-4.23,2.27v.47c0,1.62,2.09,2.25,4.23,2.25S135.33,35.47,135.33,33.93Z"/>
        <path class="cls-1" d="M158.76,38.19v.69h-15v-.69Zm-9.85,6.59c-1.06.53-2.23,1-3.4,1.52l-.32-.64c1.11-.45,2.37-1,3.53-1.54s2.14-1.07,2.14-2.45V40.34h.79v1.33c0,1.38.85,1.8,2.14,2.45s2.42,1.09,3.53,1.54l-.32.64c-1.17-.51-2.34-1-3.4-1.52a5.26,5.26,0,0,1-2.35-1.67A5.15,5.15,0,0,1,148.91,44.78Zm-2.84-8.86V30.79h10.35v.69h-9.59v3.76h9.67v.68Z"/>
        <path class="cls-1" d="M169.38,32.74H160v-.69h4.27V29.84H165v2.21h4.37ZM161,37.51v-1c0-1.57,1.71-2.67,3.66-2.67s3.65,1.08,3.65,2.67v1c0,1.58-1.71,2.66-3.65,2.66S161,39.09,161,37.51Zm6.57,0v-.94c0-1.18-1.36-2-2.91-2s-2.92.81-2.92,2v.94c0,1.19,1.35,2,2.92,2S167.54,38.68,167.54,37.49Zm-3.7,7.89h9.27v.72H163.06V41.6h.78Zm11.39-9.56h-2.68V41.9h-.77V30h.77v5.1h2.68Z"/>
        <path class="cls-1" d="M180.54,41.74c5.36-3,6.26-4.2,6.26-6.91V32.31h-6.21v-.73h7v3.3c0,3.28-1.42,4.61-6.61,7.53Zm14.73-4.59h-2.92v9.16h-.77V30h.77v6.43h2.92Z"/>
        <path class="cls-1" d="M196.92,41.94V31.39h.77v4.19h5.73V31.39h.77v2.93h4.49V30h.77V46.31h-.77V39.13h-4.49v2.81Zm.77-.72h5.73V36.3h-5.73Zm6.5-6.18v3.37h4.49V35Z"/>
        <path class="cls-1" d="M224.73,46.26H214.22V41h4.88V38.46H212v-.68h15v.68h-7.13V41h4.88Zm-.25-13.15v.45c0,1.95-2.52,2.81-5,2.81s-5-.79-5-2.81v-.45c0-2,2.52-2.79,5-2.79S224.48,31.12,224.48,33.11Zm-.5,8.56h-9v3.9h9Zm-.27-8.12v-.38c0-1.64-2.15-2.14-4.24-2.14s-4.23.5-4.23,2.14v.38c0,1.62,2.15,2.12,4.23,2.12S223.71,35.1,223.71,33.55Z"/>
        <path class="cls-1" d="M228,41.7h3.71v-5.5h.77v5.48c2.49,0,4.11-.15,6.09-.36l.07.7a86.29,86.29,0,0,1-10.64.4Zm.85-10.1h8v1.61a26.89,26.89,0,0,1-.49,5.76l-.74-.11a26.89,26.89,0,0,0,.47-5.53v-1h-7.27Zm14.8,5.53H241v9.18h-.78V30H241v6.41h2.74Z"/>
        <path class="cls-1" d="M255.26,46.31V40.64h-7.11V40h15v.68H256v5.67Zm5.6-8.93H250.45V30.63h.76v2.65h8.89V30.63h.76Zm-9.65-.68h8.89V34h-8.89Z"/>
        <path class="cls-1" d="M279.18,43.18v.7h-15v-.7Zm-12.76-4.5V31.57h10.49v.7h-9.72V38h9.89v.7Z"/>
        <path class="cls-1" d="M282.06,36.82v4.65h3.2a37.76,37.76,0,0,0,5.24-.38l.09.69a39.7,39.7,0,0,1-5.54.41H281.3V36.12h5.93V32H281.3v-.7H288v5.49Zm10.82,9.49V36.68h-3.49v-.74h3.49V30h.77V46.31Z"/>
        <path class="cls-1" d="M309,46.26H298.46V41h4.87V38.46h-7.12v-.68h15v.68h-7.13V41H309Zm-.25-13.15v.45c0,1.95-2.52,2.81-5,2.81s-5-.79-5-2.81v-.45c0-2,2.52-2.79,5-2.79S308.72,31.12,308.72,33.11Zm-.51,8.56h-9v3.9h9Zm-.27-8.12v-.38c0-1.64-2.14-2.14-4.23-2.14s-4.23.5-4.23,2.14v.38c0,1.62,2.14,2.12,4.23,2.12S307.94,35.1,307.94,33.55Z"/>
      </g>
    </g>
  </g>
</svg>
