<svg xmlns="http://www.w3.org/2000/svg" viewBox="0 0 615.99 275.78">
  <defs>
    <style>
      .cls-1 {
        stroke: #000;
        stroke-miterlimit: 10;
        stroke-width: 9.96px;
      }
    </style>
  </defs>
  <g id="레이어_2" data-name="레이어 2">
    <g id="assets">
      <g>
        <path class="cls-1" d="M19.2,93.81q8.44,15.5,23.35,15.49a16.92,16.92,0,0,0,13.05-5.52q5.07-5.52,5.07-14.42,0-12.52-14.59-19.28L31,63Q10.6,53.43,10.6,34.81q0-13,8.37-21.42T40.09,5q23,0,34.71,22.91L64.05,33Q55.44,17.67,40.24,17.67q-7.83,0-12.82,4.7a15.68,15.68,0,0,0-5,12,15.33,15.33,0,0,0,3,9.55q3,4,10.21,7.25l15.83,7.42q11.06,5.28,16.05,12.69t5,18.29q0,14.34-8.53,23.4T42.09,122Q20,122,8.29,98.26Z"/>
        <path class="cls-1" d="M92.46,43.21a38.19,38.19,0,0,1,10.45-27Q113.35,5,128.1,5A33.28,33.28,0,0,1,153.37,16.1q10.37,11.13,10.36,27.11V83.76a38.23,38.23,0,0,1-10.44,27Q142.85,122,128.1,122,113.51,122,103,110.7A38.13,38.13,0,0,1,92.46,83.76Zm59.45,0a25.42,25.42,0,0,0-7-18.12,22.77,22.77,0,0,0-33.64,0,25.42,25.42,0,0,0-7,18.12V83.76a25.46,25.46,0,0,0,7.07,18q7.06,7.57,16.74,7.58t16.74-7.58a25.46,25.46,0,0,0,7.07-18Z"/>
        <path class="cls-1" d="M194.3,6.13V83.76a25.46,25.46,0,0,0,7.07,18q7.06,7.57,16.74,7.58t16.74-7.58a25.46,25.46,0,0,0,7.07-18V6.13h11.82V83.76a38.23,38.23,0,0,1-10.44,27Q232.86,122,218.11,122q-14.6,0-25.11-11.29a38.13,38.13,0,0,1-10.53-26.94V6.13Z"/>
        <path class="cls-1" d="M343.75,6.13V18.82H284.31V57.06h41.62V69.75H284.31v51.09H272.48V6.13Z"/>
        <path class="cls-1" d="M432.38,6.13V18.82H372.93V57.06h41.63V69.75H372.93v51.09H361.11V6.13Z"/>
        <path class="cls-1" d="M461.56,6.13v102H521v12.69H449.73V6.13Z"/>
        <path class="cls-1" d="M551.57,18.82V57.06h41.62V69.91H551.57v38.24H611v12.69H539.74V6.13H611V18.82Z"/>
        <path class="cls-1" d="M49.46,270.8h-12V219.38L7.83,156.09H20.27l23.2,50.6,23.19-50.6H79.1L49.46,219.38Z"/>
        <path class="cls-1" d="M91.54,245.25,83.25,270.8H70.81l37.94-114.71h12L158.67,270.8H146.23l-8.3-25.55Zm23.2-71.85-19,59.16h38.25Z"/>
        <path class="cls-1" d="M249.29,270.8h-12.9l-20.12-43.35H189.85V270.8H178V156.09H216q13.81,0,23.58,10.47a35.79,35.79,0,0,1,9.75,25.3,36.5,36.5,0,0,1-5.84,20A32.91,32.91,0,0,1,228.09,225Zm-33.33-56A20.06,20.06,0,0,0,231.17,208a24.1,24.1,0,0,0,0-32.47A20.07,20.07,0,0,0,216,168.78H189.85v46Z"/>
        <path class="cls-1" d="M281.54,156.09l47.62,90.48V156.09H341V270.8H329.16l-47.62-90.48V270.8H269.72V156.09Z"/>
      </g>
    </g>
  </g>
</svg>
